<mxfile host="app.diagrams.net" modified="2022-01-18T22:14:13.681Z" agent="5.0 (Macintosh; Intel Mac OS X 10_15_7) AppleWebKit/537.36 (KHTML, like Gecko) Chrome/97.0.4692.71 Safari/537.36" etag="WnLfDHABsLqTb2P4HRhb" version="16.2.7" type="github">
  <diagram id="2l4fbEivpAAotf6BEisV" name="Page-15">
    <mxGraphModel dx="5024" dy="-1055" grid="1" gridSize="10" guides="1" tooltips="1" connect="1" arrows="1" fold="1" page="1" pageScale="1" pageWidth="1100" pageHeight="850" math="0" shadow="0">
      <root>
        <mxCell id="sFut6FeqECjllhm6QVjB-0" />
        <mxCell id="sFut6FeqECjllhm6QVjB-1" parent="sFut6FeqECjllhm6QVjB-0" />
        <mxCell id="tfkPu7cL_q4CPY7hSsbs-67" value="&lt;font data-font-src=&quot;https://fonts.googleapis.com/css?family=Roboto+Mono&quot; style=&quot;font-size: 16px&quot;&gt;layout/site&lt;/font&gt;" style="shape=partialRectangle;html=1;top=1;align=center;dashed=1;strokeWidth=1;labelPosition=center;verticalLabelPosition=middle;verticalAlign=top;fillColor=#cdeb8b;strokeColor=#36393d;spacingLeft=4;fontFamily=Roboto Mono;fontSource=https://fonts.googleapis.com/css?family=Roboto+Mono;fontSize=16;" vertex="1" parent="sFut6FeqECjllhm6QVjB-1">
          <mxGeometry x="-2800" y="1760" width="450" height="740.27" as="geometry" />
        </mxCell>
        <mxCell id="tfkPu7cL_q4CPY7hSsbs-71" value="" style="group" vertex="1" connectable="0" parent="sFut6FeqECjllhm6QVjB-1">
          <mxGeometry x="-2820" y="1850.27" width="500" height="550" as="geometry" />
        </mxCell>
        <mxCell id="tfkPu7cL_q4CPY7hSsbs-72" value="pages/landing/[slug]" style="rounded=0;whiteSpace=wrap;html=1;fontFamily=Roboto;fontSource=https%3A%2F%2Ffonts.googleapis.com%2Fcss%3Ffamily%3DRoboto;fontSize=16;align=left;labelPosition=center;verticalLabelPosition=middle;verticalAlign=top;fontStyle=1;spacingLeft=5;" vertex="1" parent="tfkPu7cL_q4CPY7hSsbs-71">
          <mxGeometry width="500" height="550" as="geometry" />
        </mxCell>
        <mxCell id="tfkPu7cL_q4CPY7hSsbs-73" value="PageSectionsContainer" style="verticalLabelPosition=middle;verticalAlign=top;shape=mxgraph.basic.diag_round_rect;dx=6;rounded=1;glass=0;fontFamily=Roboto Mono;fontSource=https://fonts.googleapis.com/css?family=Roboto+Mono;fontSize=14;fillColor=#FFFFCC;strokeColor=#CCCC00;labelPosition=center;align=center;dashed=1;strokeWidth=3;" vertex="1" parent="tfkPu7cL_q4CPY7hSsbs-71">
          <mxGeometry x="57.5" y="40" width="402.5" height="480" as="geometry" />
        </mxCell>
        <mxCell id="tfkPu7cL_q4CPY7hSsbs-74" value="PageSection" style="verticalLabelPosition=middle;verticalAlign=top;html=1;shape=mxgraph.basic.diag_round_rect;dx=6;rounded=1;glass=0;fontFamily=Roboto Mono;fontSource=https://fonts.googleapis.com/css?family=Roboto+Mono;fontSize=16;fillColor=#ffff88;strokeColor=#36393d;labelPosition=center;align=center;dashed=1;" vertex="1" parent="tfkPu7cL_q4CPY7hSsbs-71">
          <mxGeometry x="82.75" y="450" width="347.25" height="50" as="geometry" />
        </mxCell>
        <mxCell id="tfkPu7cL_q4CPY7hSsbs-75" value="PageSection" style="verticalLabelPosition=middle;verticalAlign=top;shape=mxgraph.basic.diag_round_rect;dx=6;rounded=1;glass=0;fontFamily=Roboto Mono;fontSource=https://fonts.googleapis.com/css?family=Roboto+Mono;fontSize=14;fillColor=#ffff88;strokeColor=#36393d;labelPosition=center;align=center;dashed=1;" vertex="1" parent="tfkPu7cL_q4CPY7hSsbs-71">
          <mxGeometry x="80" y="74" width="352" height="356" as="geometry" />
        </mxCell>
        <mxCell id="tfkPu7cL_q4CPY7hSsbs-76" value="SectionImage" style="verticalLabelPosition=middle;verticalAlign=top;html=1;shape=mxgraph.basic.diag_snip_rect;dx=6;rounded=1;glass=0;fontFamily=Roboto Mono;fontSource=https%3A%2F%2Ffonts.googleapis.com%2Fcss%3Ffamily%3DRoboto%2BMono;fillColor=#b1ddf0;strokeColor=#10739e;labelPosition=center;align=center;" vertex="1" parent="tfkPu7cL_q4CPY7hSsbs-71">
          <mxGeometry x="94.74950617283946" y="109.09999999999991" width="134.320987654321" height="34.9" as="geometry" />
        </mxCell>
        <mxCell id="tfkPu7cL_q4CPY7hSsbs-77" value="BlockWrapper" style="rounded=0;whiteSpace=wrap;html=1;pointerEvents=0;fontFamily=Roboto;fontSize=14;fillColor=#ffe6cc;strokeColor=#d79b00;fontSource=https://fonts.googleapis.com/css?family=Roboto;verticalAlign=top;" vertex="1" parent="tfkPu7cL_q4CPY7hSsbs-71">
          <mxGeometry x="94.75" y="150" width="328" height="260" as="geometry" />
        </mxCell>
        <mxCell id="tfkPu7cL_q4CPY7hSsbs-78" value="" style="group" vertex="1" connectable="0" parent="tfkPu7cL_q4CPY7hSsbs-71">
          <mxGeometry x="113.50999999999976" y="180.00000000000023" width="285.73" height="218.4699999999998" as="geometry" />
        </mxCell>
        <mxCell id="tfkPu7cL_q4CPY7hSsbs-79" value="BLOCK" style="verticalLabelPosition=middle;verticalAlign=top;shape=mxgraph.basic.diag_round_rect;dx=6;rounded=0;shadow=0;sketch=0;fontFamily=Roboto Mono;fontSize=12;align=center;points=[[0,0.25],[0,0.5],[0,0.75],[0.25,0],[0.5,0],[0.75,0],[1,0.25],[1,0.5],[1,0.75],[0.25,1],[0.5,1],[0.75,1]];snapToPoint=1;labelPosition=center;strokeColor=#23445d;spacingLeft=11;spacingRight=3;spacingBottom=3;spacingTop=3;fontSource=https%3A%2F%2Ffonts.googleapis.com%2Fcss%3Ffamily%3DRoboto%2BMono;fillColor=#bac8d3;" vertex="1" parent="tfkPu7cL_q4CPY7hSsbs-78">
          <mxGeometry x="2.2700000000000102" width="283.46" height="35" as="geometry" />
        </mxCell>
        <mxCell id="tfkPu7cL_q4CPY7hSsbs-80" value="BLOCK" style="verticalLabelPosition=middle;verticalAlign=top;shape=mxgraph.basic.diag_round_rect;dx=6;rounded=0;shadow=0;sketch=0;fontFamily=Roboto Mono;fontSize=12;align=center;points=[[0,0.25],[0,0.5],[0,0.75],[0.25,0],[0.5,0],[0.75,0],[1,0.25],[1,0.5],[1,0.75],[0.25,1],[0.5,1],[0.75,1]];snapToPoint=1;labelPosition=center;strokeColor=#23445d;spacingLeft=11;spacingRight=3;spacingBottom=3;spacingTop=3;fontSource=https%3A%2F%2Ffonts.googleapis.com%2Fcss%3Ffamily%3DRoboto%2BMono;fillColor=#bac8d3;" vertex="1" parent="tfkPu7cL_q4CPY7hSsbs-78">
          <mxGeometry x="2.2700000000000102" y="43.4699999999998" width="283.46" height="130" as="geometry" />
        </mxCell>
        <mxCell id="tfkPu7cL_q4CPY7hSsbs-81" value="" style="group" vertex="1" connectable="0" parent="tfkPu7cL_q4CPY7hSsbs-78">
          <mxGeometry x="15.730000000000018" y="69.9699999999998" width="110" height="90" as="geometry" />
        </mxCell>
        <mxCell id="tfkPu7cL_q4CPY7hSsbs-82" value="COLUMN" style="rounded=1;whiteSpace=wrap;html=1;pointerEvents=0;fontFamily=Roboto;fontSource=https%3A%2F%2Ffonts.googleapis.com%2Fcss%3Ffamily%3DRoboto;fontSize=12;fontColor=default;fillColor=#EDEDED;gradientColor=none;strokeWidth=1;verticalAlign=top;strokeColor=#10739E;" vertex="1" parent="tfkPu7cL_q4CPY7hSsbs-81">
          <mxGeometry width="110" height="90" as="geometry" />
        </mxCell>
        <mxCell id="tfkPu7cL_q4CPY7hSsbs-83" value="ELEMENT" style="verticalLabelPosition=middle;verticalAlign=middle;html=1;shape=mxgraph.basic.diag_snip_rect;dx=6;rounded=1;glass=0;fontFamily=Roboto;fontSource=https%3A%2F%2Ffonts.googleapis.com%2Fcss%3Ffamily%3DRoboto;fillColor=#b1ddf0;strokeColor=none;labelPosition=center;align=center;fontSize=10;" vertex="1" parent="tfkPu7cL_q4CPY7hSsbs-81">
          <mxGeometry x="3.670000000000016" y="30" width="102.66" height="20" as="geometry" />
        </mxCell>
        <mxCell id="tfkPu7cL_q4CPY7hSsbs-84" value="ELEMENT" style="verticalLabelPosition=middle;verticalAlign=middle;html=1;shape=mxgraph.basic.diag_snip_rect;dx=6;rounded=1;glass=0;fontFamily=Roboto;fontSource=https%3A%2F%2Ffonts.googleapis.com%2Fcss%3Ffamily%3DRoboto;fillColor=#b1ddf0;strokeColor=none;labelPosition=center;align=center;fontSize=10;" vertex="1" parent="tfkPu7cL_q4CPY7hSsbs-81">
          <mxGeometry x="3.670000000000016" y="55" width="102.66" height="20" as="geometry" />
        </mxCell>
        <mxCell id="tfkPu7cL_q4CPY7hSsbs-85" value="" style="group" vertex="1" connectable="0" parent="tfkPu7cL_q4CPY7hSsbs-78">
          <mxGeometry x="165.73000000000002" y="72.4699999999998" width="110" height="90" as="geometry" />
        </mxCell>
        <mxCell id="tfkPu7cL_q4CPY7hSsbs-86" value="COLUMN" style="rounded=1;whiteSpace=wrap;html=1;pointerEvents=0;fontFamily=Roboto;fontSource=https%3A%2F%2Ffonts.googleapis.com%2Fcss%3Ffamily%3DRoboto;fontSize=12;fontColor=default;fillColor=#EDEDED;gradientColor=none;strokeWidth=1;verticalAlign=top;strokeColor=#10739E;" vertex="1" parent="tfkPu7cL_q4CPY7hSsbs-85">
          <mxGeometry width="110" height="90" as="geometry" />
        </mxCell>
        <mxCell id="tfkPu7cL_q4CPY7hSsbs-87" value="ELEMENT" style="verticalLabelPosition=middle;verticalAlign=middle;html=1;shape=mxgraph.basic.diag_snip_rect;dx=6;rounded=1;glass=0;fontFamily=Roboto;fontSource=https%3A%2F%2Ffonts.googleapis.com%2Fcss%3Ffamily%3DRoboto;fillColor=#b1ddf0;strokeColor=none;labelPosition=center;align=center;fontSize=10;" vertex="1" parent="tfkPu7cL_q4CPY7hSsbs-85">
          <mxGeometry x="3.670000000000016" y="30" width="102.66" height="20" as="geometry" />
        </mxCell>
        <mxCell id="tfkPu7cL_q4CPY7hSsbs-88" value="ELEMENT" style="verticalLabelPosition=middle;verticalAlign=middle;html=1;shape=mxgraph.basic.diag_snip_rect;dx=6;rounded=1;glass=0;fontFamily=Roboto;fontSource=https%3A%2F%2Ffonts.googleapis.com%2Fcss%3Ffamily%3DRoboto;fillColor=#b1ddf0;strokeColor=none;labelPosition=center;align=center;fontSize=10;" vertex="1" parent="tfkPu7cL_q4CPY7hSsbs-85">
          <mxGeometry x="3.670000000000016" y="55" width="102.66" height="20" as="geometry" />
        </mxCell>
        <mxCell id="tfkPu7cL_q4CPY7hSsbs-89" value="BLOCK" style="verticalLabelPosition=middle;verticalAlign=top;shape=mxgraph.basic.diag_round_rect;dx=6;rounded=0;shadow=0;sketch=0;fontFamily=Roboto Mono;fontSize=12;align=center;points=[[0,0.25],[0,0.5],[0,0.75],[0.25,0],[0.5,0],[0.75,0],[1,0.25],[1,0.5],[1,0.75],[0.25,1],[0.5,1],[0.75,1]];snapToPoint=1;labelPosition=center;strokeColor=#23445d;spacingLeft=11;spacingRight=3;spacingBottom=3;spacingTop=3;fontSource=https%3A%2F%2Ffonts.googleapis.com%2Fcss%3Ffamily%3DRoboto%2BMono;fillColor=#bac8d3;" vertex="1" parent="tfkPu7cL_q4CPY7hSsbs-78">
          <mxGeometry y="183.4699999999998" width="283.46" height="35" as="geometry" />
        </mxCell>
        <mxCell id="tfkPu7cL_q4CPY7hSsbs-93" value="LANDING PAGES" style="text;strokeColor=none;fillColor=none;align=center;verticalAlign=middle;rounded=0;labelBackgroundColor=#FFFFFF;pointerEvents=0;fontFamily=Roboto;fontSource=https%3A%2F%2Ffonts.googleapis.com%2Fcss%3Ffamily%3DRoboto;fontSize=24;fontColor=default;fontStyle=1" vertex="1" parent="sFut6FeqECjllhm6QVjB-1">
          <mxGeometry x="-2930" y="1720" width="450" height="40" as="geometry" />
        </mxCell>
        <mxCell id="tfkPu7cL_q4CPY7hSsbs-69" value="AppBar" style="rounded=0;glass=0;fontFamily=Roboto Mono;fontSource=https%3A%2F%2Ffonts.googleapis.com%2Fcss%3Ffamily%3DRoboto%2BMono;align=center;verticalAlign=middle;fillColor=#D9D9D9;fontSize=16;" vertex="1" parent="sFut6FeqECjllhm6QVjB-1">
          <mxGeometry x="-2770" y="1800.27" width="400" height="40" as="geometry" />
        </mxCell>
        <mxCell id="tfkPu7cL_q4CPY7hSsbs-70" value="Footer" style="rounded=0;glass=0;fontFamily=Roboto Mono;fontSource=https%3A%2F%2Ffonts.googleapis.com%2Fcss%3Ffamily%3DRoboto%2BMono;align=center;verticalAlign=middle;fillColor=#D9D9D9;fontSize=16;" vertex="1" parent="sFut6FeqECjllhm6QVjB-1">
          <mxGeometry x="-2782.75" y="2416.45" width="415.5" height="61" as="geometry" />
        </mxCell>
        <mxCell id="tfkPu7cL_q4CPY7hSsbs-104" value="&lt;font data-font-src=&quot;https://fonts.googleapis.com/css?family=Roboto+Mono&quot; style=&quot;font-size: 16px&quot;&gt;LAYOUT&lt;/font&gt;" style="shape=partialRectangle;html=1;top=1;align=left;dashed=1;strokeWidth=1;labelPosition=center;verticalLabelPosition=middle;verticalAlign=top;fillColor=#cdeb8b;strokeColor=#36393d;spacingLeft=4;fontFamily=Roboto Mono;fontSource=https://fonts.googleapis.com/css?family=Roboto+Mono;fontSize=16;" vertex="1" parent="sFut6FeqECjllhm6QVjB-1">
          <mxGeometry x="-3273.38" y="1769.23" width="203.38" height="40" as="geometry" />
        </mxCell>
        <mxCell id="tfkPu7cL_q4CPY7hSsbs-105" value="COMPONENT" style="rounded=0;glass=0;fontFamily=Roboto Mono;fontSource=https%3A%2F%2Ffonts.googleapis.com%2Fcss%3Ffamily%3DRoboto%2BMono;align=center;verticalAlign=middle;fillColor=#D9D9D9;fontSize=14;" vertex="1" parent="sFut6FeqECjllhm6QVjB-1">
          <mxGeometry x="-3278.3" y="2320" width="210" height="61" as="geometry" />
        </mxCell>
        <mxCell id="tfkPu7cL_q4CPY7hSsbs-127" value="LEGEND" style="text;strokeColor=none;fillColor=none;align=center;verticalAlign=middle;rounded=0;labelBackgroundColor=#FFFFFF;pointerEvents=0;fontFamily=Roboto;fontSource=https%3A%2F%2Ffonts.googleapis.com%2Fcss%3Ffamily%3DRoboto;fontSize=24;fontColor=default;fontStyle=1" vertex="1" parent="sFut6FeqECjllhm6QVjB-1">
          <mxGeometry x="-3273.38" y="1710" width="210" height="40" as="geometry" />
        </mxCell>
        <mxCell id="tfkPu7cL_q4CPY7hSsbs-109" value="PAGE" style="rounded=0;whiteSpace=wrap;html=1;fontFamily=Roboto;fontSource=https%3A%2F%2Ffonts.googleapis.com%2Fcss%3Ffamily%3DRoboto;fontSize=14;align=left;labelPosition=center;verticalLabelPosition=middle;verticalAlign=top;fontStyle=1;spacingLeft=5;" vertex="1" parent="sFut6FeqECjllhm6QVjB-1">
          <mxGeometry x="-3273.38" y="1820" width="203.38" height="49.23" as="geometry" />
        </mxCell>
        <mxCell id="tfkPu7cL_q4CPY7hSsbs-110" value="CONTAINER" style="verticalLabelPosition=middle;verticalAlign=top;shape=mxgraph.basic.diag_round_rect;dx=6;rounded=1;glass=0;fontFamily=Roboto Mono;fontSource=https://fonts.googleapis.com/css?family=Roboto+Mono;fontSize=14;fillColor=#FFFFCC;strokeColor=#CCCC00;labelPosition=center;align=center;dashed=1;strokeWidth=3;" vertex="1" parent="sFut6FeqECjllhm6QVjB-1">
          <mxGeometry x="-3273.38" y="1879.23" width="210" height="130" as="geometry" />
        </mxCell>
        <mxCell id="tfkPu7cL_q4CPY7hSsbs-112" value="SECTION" style="verticalLabelPosition=middle;verticalAlign=top;shape=mxgraph.basic.diag_round_rect;dx=6;rounded=1;glass=0;fontFamily=Roboto Mono;fontSource=https://fonts.googleapis.com/css?family=Roboto+Mono;fontSize=14;fillColor=#ffff88;strokeColor=#36393d;labelPosition=center;align=center;dashed=1;" vertex="1" parent="sFut6FeqECjllhm6QVjB-1">
          <mxGeometry x="-3263.38" y="1919.23" width="190" height="66" as="geometry" />
        </mxCell>
        <mxCell id="tfkPu7cL_q4CPY7hSsbs-113" value="ELEMENT" style="verticalLabelPosition=middle;verticalAlign=top;html=1;shape=mxgraph.basic.diag_snip_rect;dx=6;rounded=1;glass=0;fontFamily=Roboto Mono;fontSource=https%3A%2F%2Ffonts.googleapis.com%2Fcss%3Ffamily%3DRoboto%2BMono;fillColor=#b1ddf0;strokeColor=#10739e;labelPosition=center;align=center;" vertex="1" parent="sFut6FeqECjllhm6QVjB-1">
          <mxGeometry x="-3278.3" y="2390" width="210" height="34.9" as="geometry" />
        </mxCell>
        <mxCell id="tfkPu7cL_q4CPY7hSsbs-114" value="WRAPPER" style="rounded=0;whiteSpace=wrap;html=1;pointerEvents=0;fontFamily=Roboto;fontSize=14;fillColor=#ffe6cc;strokeColor=#d79b00;fontSource=https://fonts.googleapis.com/css?family=Roboto;verticalAlign=top;" vertex="1" parent="sFut6FeqECjllhm6QVjB-1">
          <mxGeometry x="-3273.88" y="2017.3700000000001" width="210.5" height="40" as="geometry" />
        </mxCell>
        <mxCell id="tfkPu7cL_q4CPY7hSsbs-116" value="BLOCK" style="verticalLabelPosition=middle;verticalAlign=top;shape=mxgraph.basic.diag_round_rect;dx=6;rounded=0;shadow=0;sketch=0;fontFamily=Roboto Mono;fontSize=14;align=center;points=[[0,0.25],[0,0.5],[0,0.75],[0.25,0],[0.5,0],[0.75,0],[1,0.25],[1,0.5],[1,0.75],[0.25,1],[0.5,1],[0.75,1]];snapToPoint=1;labelPosition=center;strokeColor=#23445d;spacingLeft=11;spacingRight=3;spacingBottom=3;spacingTop=3;fontSource=https%3A%2F%2Ffonts.googleapis.com%2Fcss%3Ffamily%3DRoboto%2BMono;fillColor=#bac8d3;" vertex="1" parent="sFut6FeqECjllhm6QVjB-1">
          <mxGeometry x="-3278.3" y="2207.63" width="213.23" height="35" as="geometry" />
        </mxCell>
        <mxCell id="tfkPu7cL_q4CPY7hSsbs-130" value="&lt;font style=&quot;font-size: 13px&quot;&gt;HOOK-HELPER-UTIL&lt;/font&gt;" style="verticalLabelPosition=middle;verticalAlign=top;html=1;shape=mxgraph.basic.diag_round_rect;dx=6;rounded=0;shadow=0;sketch=0;fontFamily=Roboto Mono;fontSize=15;align=center;points=[[0,0.25],[0,0.5],[0,0.75],[0.25,0],[0.5,0],[0.75,0],[1,0.25],[1,0.5],[1,0.75],[0.25,1],[0.5,1],[0.75,1]];snapToPoint=1;labelPosition=center;strokeColor=#ae4132;whiteSpace=wrap;spacingLeft=11;spacingRight=3;spacingBottom=3;spacingTop=3;fontSource=https%3A%2F%2Ffonts.googleapis.com%2Fcss%3Ffamily%3DRoboto%2BMono;fillColor=#fad9d5;strokeWidth=2;dashed=1;dashPattern=1 1;" vertex="1" parent="sFut6FeqECjllhm6QVjB-1">
          <mxGeometry x="-3274.92" y="2440" width="203.23" height="51.53" as="geometry" />
        </mxCell>
        <mxCell id="tfkPu7cL_q4CPY7hSsbs-131" value="&lt;font style=&quot;font-size: 13px&quot;&gt;MODULE&lt;/font&gt;" style="verticalLabelPosition=middle;verticalAlign=top;html=1;shape=mxgraph.basic.diag_round_rect;dx=6;rounded=0;shadow=0;sketch=0;fontFamily=Roboto Mono;fontSize=15;align=center;points=[[0,0.25],[0,0.5],[0,0.75],[0.25,0],[0.5,0],[0.75,0],[1,0.25],[1,0.5],[1,0.75],[0.25,1],[0.5,1],[0.75,1]];snapToPoint=1;labelPosition=center;strokeColor=#56517e;whiteSpace=wrap;spacingLeft=11;spacingRight=3;spacingBottom=3;spacingTop=3;fontSource=https%3A%2F%2Ffonts.googleapis.com%2Fcss%3Ffamily%3DRoboto%2BMono;fillColor=#d0cee2;strokeWidth=2;" vertex="1" parent="sFut6FeqECjllhm6QVjB-1">
          <mxGeometry x="-3278.3" y="2258.47" width="216.61" height="51.53" as="geometry" />
        </mxCell>
        <mxCell id="tfkPu7cL_q4CPY7hSsbs-30" value="&lt;font data-font-src=&quot;https://fonts.googleapis.com/css?family=Roboto+Mono&quot; style=&quot;font-size: 16px&quot;&gt;layout/site&lt;/font&gt;" style="shape=partialRectangle;html=1;top=1;align=center;dashed=1;strokeWidth=1;labelPosition=center;verticalLabelPosition=middle;verticalAlign=top;fillColor=#cdeb8b;strokeColor=#36393d;spacingLeft=4;fontFamily=Roboto Mono;fontSource=https://fonts.googleapis.com/css?family=Roboto+Mono;fontSize=16;" vertex="1" parent="sFut6FeqECjllhm6QVjB-1">
          <mxGeometry x="-3195" y="2590" width="450" height="800" as="geometry" />
        </mxCell>
        <mxCell id="tfkPu7cL_q4CPY7hSsbs-31" value="FooterSectionsContainer" style="verticalLabelPosition=middle;verticalAlign=top;html=1;shape=mxgraph.basic.diag_round_rect;dx=6;rounded=1;glass=0;fontFamily=Roboto Mono;fontSource=https://fonts.googleapis.com/css?family=Roboto+Mono;fontSize=13;fillColor=#FFFFCC;strokeColor=#36393d;labelPosition=center;align=center;dashed=1;" vertex="1" parent="sFut6FeqECjllhm6QVjB-1">
          <mxGeometry x="-3185.5" y="3300" width="425.5" height="40" as="geometry" />
        </mxCell>
        <mxCell id="tfkPu7cL_q4CPY7hSsbs-32" value="HomeBar" style="rounded=0;glass=0;fontFamily=Roboto Mono;fontSource=https%3A%2F%2Ffonts.googleapis.com%2Fcss%3Ffamily%3DRoboto%2BMono;align=center;verticalAlign=middle;fillColor=#D9D9D9;fontSize=16;" vertex="1" parent="sFut6FeqECjllhm6QVjB-1">
          <mxGeometry x="-3162.5" y="2620" width="400" height="30" as="geometry" />
        </mxCell>
        <mxCell id="tfkPu7cL_q4CPY7hSsbs-33" value="Footer" style="rounded=0;glass=0;fontFamily=Roboto Mono;fontSource=https%3A%2F%2Ffonts.googleapis.com%2Fcss%3Ffamily%3DRoboto%2BMono;align=center;verticalAlign=middle;fillColor=#D9D9D9;fontSize=16;" vertex="1" parent="sFut6FeqECjllhm6QVjB-1">
          <mxGeometry x="-3187.75" y="3340" width="415.5" height="31" as="geometry" />
        </mxCell>
        <mxCell id="tfkPu7cL_q4CPY7hSsbs-23" value="pages/home" style="rounded=0;whiteSpace=wrap;html=1;fontFamily=Roboto;fontSource=https%3A%2F%2Ffonts.googleapis.com%2Fcss%3Ffamily%3DRoboto;fontSize=16;align=left;labelPosition=center;verticalLabelPosition=middle;verticalAlign=top;fontStyle=1;spacingLeft=5;" vertex="1" parent="sFut6FeqECjllhm6QVjB-1">
          <mxGeometry x="-3220" y="2720" width="500" height="580" as="geometry" />
        </mxCell>
        <mxCell id="tfkPu7cL_q4CPY7hSsbs-24" value="HomeSectionsContainer" style="verticalLabelPosition=middle;verticalAlign=top;shape=mxgraph.basic.diag_round_rect;dx=6;rounded=1;glass=0;fontFamily=Roboto Mono;fontSource=https://fonts.googleapis.com/css?family=Roboto+Mono;fontSize=14;fillColor=#FFFFCC;strokeColor=#CCCC00;labelPosition=center;align=center;dashed=1;strokeWidth=3;" vertex="1" parent="sFut6FeqECjllhm6QVjB-1">
          <mxGeometry x="-3162.5" y="2760" width="402.5" height="520" as="geometry" />
        </mxCell>
        <mxCell id="tfkPu7cL_q4CPY7hSsbs-34" value="HomeBanner" style="rounded=0;glass=0;fontFamily=Roboto Mono;fontSource=https%3A%2F%2Ffonts.googleapis.com%2Fcss%3Ffamily%3DRoboto%2BMono;align=center;verticalAlign=middle;fillColor=#D9D9D9;fontSize=16;" vertex="1" parent="sFut6FeqECjllhm6QVjB-1">
          <mxGeometry x="-3162.5" y="2660" width="400" height="50" as="geometry" />
        </mxCell>
        <mxCell id="tfkPu7cL_q4CPY7hSsbs-46" value="" style="group;fillColor=#ffe6cc;strokeColor=#d79b00;" vertex="1" connectable="0" parent="sFut6FeqECjllhm6QVjB-1">
          <mxGeometry x="-3137.25" y="2790" width="352" height="200" as="geometry" />
        </mxCell>
        <mxCell id="tfkPu7cL_q4CPY7hSsbs-26" value="featured-wrappper" style="verticalLabelPosition=middle;verticalAlign=top;shape=mxgraph.basic.diag_round_rect;dx=6;rounded=1;glass=0;fontFamily=Roboto Mono;fontSource=https://fonts.googleapis.com/css?family=Roboto+Mono;fontSize=14;fillColor=#ffe6cc;strokeColor=#d79b00;labelPosition=center;align=center;dashed=1;" vertex="1" parent="tfkPu7cL_q4CPY7hSsbs-46">
          <mxGeometry width="352" height="200" as="geometry" />
        </mxCell>
        <mxCell id="tfkPu7cL_q4CPY7hSsbs-45" value="" style="group" vertex="1" connectable="0" parent="tfkPu7cL_q4CPY7hSsbs-46">
          <mxGeometry x="32.25" y="41.5300000000002" width="290" height="138.47" as="geometry" />
        </mxCell>
        <mxCell id="tfkPu7cL_q4CPY7hSsbs-40" value="HomeCard" style="rounded=0;glass=0;fontFamily=Roboto Mono;fontSource=https%3A%2F%2Ffonts.googleapis.com%2Fcss%3Ffamily%3DRoboto%2BMono;align=center;verticalAlign=middle;fillColor=#D9D9D9;fontSize=16;" vertex="1" parent="tfkPu7cL_q4CPY7hSsbs-45">
          <mxGeometry width="168.38709677419354" height="89.18253822629978" as="geometry" />
        </mxCell>
        <mxCell id="tfkPu7cL_q4CPY7hSsbs-41" value="HomeCard" style="rounded=0;glass=0;fontFamily=Roboto Mono;fontSource=https%3A%2F%2Ffonts.googleapis.com%2Fcss%3Ffamily%3DRoboto%2BMono;align=center;verticalAlign=middle;fillColor=#D9D9D9;fontSize=16;" vertex="1" parent="tfkPu7cL_q4CPY7hSsbs-45">
          <mxGeometry y="96.12443425076448" width="168.38709677419354" height="42.34556574923552" as="geometry" />
        </mxCell>
        <mxCell id="tfkPu7cL_q4CPY7hSsbs-42" value="HomeCard" style="rounded=0;glass=0;fontFamily=Roboto Mono;fontSource=https%3A%2F%2Ffonts.googleapis.com%2Fcss%3Ffamily%3DRoboto%2BMono;align=center;verticalAlign=middle;fillColor=#D9D9D9;fontSize=16;" vertex="1" parent="tfkPu7cL_q4CPY7hSsbs-45">
          <mxGeometry x="177.74193548387095" width="112.25806451612902" height="40.58926605504591" as="geometry" />
        </mxCell>
        <mxCell id="tfkPu7cL_q4CPY7hSsbs-43" value="HomeCard" style="rounded=0;glass=0;fontFamily=Roboto Mono;fontSource=https%3A%2F%2Ffonts.googleapis.com%2Fcss%3Ffamily%3DRoboto%2BMono;align=center;verticalAlign=middle;fillColor=#D9D9D9;fontSize=16;" vertex="1" parent="tfkPu7cL_q4CPY7hSsbs-45">
          <mxGeometry x="177.74193548387095" y="48.05874617737009" width="112.25806451612902" height="40.58926605504591" as="geometry" />
        </mxCell>
        <mxCell id="tfkPu7cL_q4CPY7hSsbs-44" value="HomeCard" style="rounded=0;glass=0;fontFamily=Roboto Mono;fontSource=https%3A%2F%2Ffonts.googleapis.com%2Fcss%3Ffamily%3DRoboto%2BMono;align=center;verticalAlign=middle;fillColor=#D9D9D9;fontSize=16;" vertex="1" parent="tfkPu7cL_q4CPY7hSsbs-45">
          <mxGeometry x="177.74193548387095" y="96.12443425076448" width="112.25806451612902" height="40.58926605504591" as="geometry" />
        </mxCell>
        <mxCell id="tfkPu7cL_q4CPY7hSsbs-58" value="" style="group" vertex="1" connectable="0" parent="sFut6FeqECjllhm6QVjB-1">
          <mxGeometry x="-3137.25" y="3000" width="352" height="130" as="geometry" />
        </mxCell>
        <mxCell id="tfkPu7cL_q4CPY7hSsbs-48" value="popular-wrapper" style="verticalLabelPosition=middle;verticalAlign=top;shape=mxgraph.basic.diag_round_rect;dx=6;rounded=1;glass=0;fontFamily=Roboto Mono;fontSource=https://fonts.googleapis.com/css?family=Roboto+Mono;fontSize=14;fillColor=#ffe6cc;strokeColor=#d79b00;labelPosition=center;align=center;dashed=1;" vertex="1" parent="tfkPu7cL_q4CPY7hSsbs-58">
          <mxGeometry width="352" height="130" as="geometry" />
        </mxCell>
        <mxCell id="tfkPu7cL_q4CPY7hSsbs-50" value="HomeCard" style="rounded=0;glass=0;fontFamily=Roboto Mono;fontSource=https%3A%2F%2Ffonts.googleapis.com%2Fcss%3Ffamily%3DRoboto%2BMono;align=center;verticalAlign=middle;fillColor=#D9D9D9;fontSize=16;" vertex="1" parent="tfkPu7cL_q4CPY7hSsbs-58">
          <mxGeometry x="32.25" y="41.5300000000002" width="79.50951776649747" height="68.47000000000013" as="geometry" />
        </mxCell>
        <mxCell id="tfkPu7cL_q4CPY7hSsbs-55" value="HomeCard" style="rounded=0;glass=0;fontFamily=Roboto Mono;fontSource=https%3A%2F%2Ffonts.googleapis.com%2Fcss%3Ffamily%3DRoboto%2BMono;align=center;verticalAlign=middle;fillColor=#D9D9D9;fontSize=16;" vertex="1" parent="tfkPu7cL_q4CPY7hSsbs-58">
          <mxGeometry x="136.2404060913707" y="41.5300000000002" width="79.50951776649747" height="68.47000000000013" as="geometry" />
        </mxCell>
        <mxCell id="tfkPu7cL_q4CPY7hSsbs-56" value="HomeCard" style="rounded=0;glass=0;fontFamily=Roboto Mono;fontSource=https%3A%2F%2Ffonts.googleapis.com%2Fcss%3Ffamily%3DRoboto%2BMono;align=center;verticalAlign=middle;fillColor=#D9D9D9;fontSize=16;" vertex="1" parent="tfkPu7cL_q4CPY7hSsbs-58">
          <mxGeometry x="240.49048223350246" y="41.5300000000002" width="79.50951776649747" height="68.47000000000013" as="geometry" />
        </mxCell>
        <mxCell id="tfkPu7cL_q4CPY7hSsbs-59" value="" style="group" vertex="1" connectable="0" parent="sFut6FeqECjllhm6QVjB-1">
          <mxGeometry x="-3138.5" y="3140" width="352" height="130" as="geometry" />
        </mxCell>
        <mxCell id="tfkPu7cL_q4CPY7hSsbs-60" value="latest-wrapper" style="verticalLabelPosition=middle;verticalAlign=top;shape=mxgraph.basic.diag_round_rect;dx=6;rounded=1;glass=0;fontFamily=Roboto Mono;fontSource=https://fonts.googleapis.com/css?family=Roboto+Mono;fontSize=14;fillColor=#ffe6cc;strokeColor=#d79b00;labelPosition=center;align=center;dashed=1;" vertex="1" parent="tfkPu7cL_q4CPY7hSsbs-59">
          <mxGeometry width="352" height="130" as="geometry" />
        </mxCell>
        <mxCell id="tfkPu7cL_q4CPY7hSsbs-61" value="HomeCard" style="rounded=0;glass=0;fontFamily=Roboto Mono;fontSource=https%3A%2F%2Ffonts.googleapis.com%2Fcss%3Ffamily%3DRoboto%2BMono;align=center;verticalAlign=middle;fillColor=#D9D9D9;fontSize=16;" vertex="1" parent="tfkPu7cL_q4CPY7hSsbs-59">
          <mxGeometry x="32.25" y="41.5300000000002" width="79.50951776649747" height="68.47000000000013" as="geometry" />
        </mxCell>
        <mxCell id="tfkPu7cL_q4CPY7hSsbs-62" value="HomeCard" style="rounded=0;glass=0;fontFamily=Roboto Mono;fontSource=https%3A%2F%2Ffonts.googleapis.com%2Fcss%3Ffamily%3DRoboto%2BMono;align=center;verticalAlign=middle;fillColor=#D9D9D9;fontSize=16;" vertex="1" parent="tfkPu7cL_q4CPY7hSsbs-59">
          <mxGeometry x="136.2404060913707" y="41.5300000000002" width="79.50951776649747" height="68.47000000000013" as="geometry" />
        </mxCell>
        <mxCell id="tfkPu7cL_q4CPY7hSsbs-63" value="HomeCard" style="rounded=0;glass=0;fontFamily=Roboto Mono;fontSource=https%3A%2F%2Ffonts.googleapis.com%2Fcss%3Ffamily%3DRoboto%2BMono;align=center;verticalAlign=middle;fillColor=#D9D9D9;fontSize=16;" vertex="1" parent="tfkPu7cL_q4CPY7hSsbs-59">
          <mxGeometry x="240.49048223350246" y="41.5300000000002" width="79.50951776649747" height="68.47000000000013" as="geometry" />
        </mxCell>
        <mxCell id="tfkPu7cL_q4CPY7hSsbs-91" value="HOME" style="text;strokeColor=none;fillColor=none;align=center;verticalAlign=middle;rounded=0;labelBackgroundColor=#FFFFFF;pointerEvents=0;fontFamily=Roboto;fontSource=https%3A%2F%2Ffonts.googleapis.com%2Fcss%3Ffamily%3DRoboto;fontSize=24;fontColor=default;fontStyle=1" vertex="1" parent="sFut6FeqECjllhm6QVjB-1">
          <mxGeometry x="-3193.09" y="2550" width="448.09" height="40" as="geometry" />
        </mxCell>
        <mxCell id="tfkPu7cL_q4CPY7hSsbs-90" value="ARTICLES" style="text;strokeColor=none;fillColor=none;align=center;verticalAlign=middle;rounded=0;labelBackgroundColor=#FFFFFF;pointerEvents=0;fontFamily=Roboto;fontSource=https%3A%2F%2Ffonts.googleapis.com%2Fcss%3Ffamily%3DRoboto;fontSize=24;fontColor=default;fontStyle=1" vertex="1" parent="sFut6FeqECjllhm6QVjB-1">
          <mxGeometry x="-2540" y="2560" width="450" height="40" as="geometry" />
        </mxCell>
        <mxCell id="vs7IeHukqz62ipAJ9pRf-119" value="&lt;font data-font-src=&quot;https://fonts.googleapis.com/css?family=Roboto+Mono&quot; style=&quot;font-size: 16px&quot;&gt;layout/site&lt;/font&gt;" style="shape=partialRectangle;html=1;top=1;align=center;dashed=1;strokeWidth=1;labelPosition=center;verticalLabelPosition=middle;verticalAlign=top;fillColor=#cdeb8b;strokeColor=#36393d;spacingLeft=4;fontFamily=Roboto Mono;fontSource=https://fonts.googleapis.com/css?family=Roboto+Mono;fontSize=16;" parent="sFut6FeqECjllhm6QVjB-1" vertex="1">
          <mxGeometry x="-2540" y="2600" width="450" height="780" as="geometry" />
        </mxCell>
        <mxCell id="vs7IeHukqz62ipAJ9pRf-135" value="&lt;font data-font-src=&quot;https://fonts.googleapis.com/css?family=Roboto+Mono&quot; style=&quot;font-size: 16px&quot;&gt;layout/article&lt;/font&gt;" style="shape=partialRectangle;html=1;top=1;align=center;dashed=1;strokeWidth=1;labelPosition=center;verticalLabelPosition=middle;verticalAlign=top;fillColor=#cdeb8b;strokeColor=#36393d;spacingLeft=4;fontFamily=Roboto Mono;fontSource=https://fonts.googleapis.com/css?family=Roboto+Mono;fontSize=16;" parent="sFut6FeqECjllhm6QVjB-1" vertex="1">
          <mxGeometry x="-2526.3" y="2680" width="420" height="512.5" as="geometry" />
        </mxCell>
        <mxCell id="vs7IeHukqz62ipAJ9pRf-120" value="articles/[slug]" style="rounded=0;whiteSpace=wrap;html=1;fontFamily=Roboto;fontSource=https%3A%2F%2Ffonts.googleapis.com%2Fcss%3Ffamily%3DRoboto;fontSize=16;align=left;labelPosition=center;verticalLabelPosition=middle;verticalAlign=top;fontStyle=1;spacingLeft=5;" parent="sFut6FeqECjllhm6QVjB-1" vertex="1">
          <mxGeometry x="-2565" y="2740" width="500" height="560" as="geometry" />
        </mxCell>
        <mxCell id="vs7IeHukqz62ipAJ9pRf-122" value="ArticlesSectionsContainer" style="verticalLabelPosition=middle;verticalAlign=top;html=1;shape=mxgraph.basic.diag_round_rect;dx=6;rounded=1;glass=0;fontFamily=Roboto Mono;fontSource=https://fonts.googleapis.com/css?family=Roboto+Mono;fontSize=14;fillColor=#FFFFCC;strokeColor=#CCCC00;labelPosition=center;align=center;dashed=1;strokeWidth=3;" parent="sFut6FeqECjllhm6QVjB-1" vertex="1">
          <mxGeometry x="-2517.55" y="2809.5" width="402.5" height="471" as="geometry" />
        </mxCell>
        <mxCell id="vs7IeHukqz62ipAJ9pRf-126" value="ArticleSection" style="verticalLabelPosition=middle;verticalAlign=top;html=1;shape=mxgraph.basic.diag_round_rect;dx=6;rounded=1;glass=0;fontFamily=Roboto Mono;fontSource=https://fonts.googleapis.com/css?family=Roboto+Mono;fontSize=14;fillColor=#ffff88;strokeColor=#36393d;labelPosition=center;align=center;dashed=1;" parent="sFut6FeqECjllhm6QVjB-1" vertex="1">
          <mxGeometry x="-2486.3" y="2833" width="340" height="187" as="geometry" />
        </mxCell>
        <mxCell id="vs7IeHukqz62ipAJ9pRf-140" value="BlockWrapper" style="rounded=0;whiteSpace=wrap;html=1;pointerEvents=0;fontFamily=Roboto;fontSize=16;fillColor=#ffe6cc;strokeColor=#d79b00;fontSource=https%3A%2F%2Ffonts.googleapis.com%2Fcss%3Ffamily%3DRoboto;verticalAlign=top;" parent="sFut6FeqECjllhm6QVjB-1" vertex="1">
          <mxGeometry x="-2457.5" y="2861.5" width="285" height="138.5" as="geometry" />
        </mxCell>
        <mxCell id="sFut6FeqECjllhm6QVjB-79" value="&lt;font style=&quot;font-size: 13px&quot;&gt;CheckWindowScroll&lt;/font&gt;" style="verticalLabelPosition=middle;verticalAlign=top;html=1;shape=mxgraph.basic.diag_round_rect;dx=6;rounded=0;shadow=0;sketch=0;fontFamily=Roboto Mono;fontSize=15;align=center;points=[[0,0.25],[0,0.5],[0,0.75],[0.25,0],[0.5,0],[0.75,0],[1,0.25],[1,0.5],[1,0.75],[0.25,1],[0.5,1],[0.75,1]];snapToPoint=1;labelPosition=center;strokeColor=#56517e;whiteSpace=wrap;spacingLeft=11;spacingRight=3;spacingBottom=3;spacingTop=3;fontSource=https%3A%2F%2Ffonts.googleapis.com%2Fcss%3Ffamily%3DRoboto%2BMono;fillColor=#d0cee2;strokeWidth=2;" parent="sFut6FeqECjllhm6QVjB-1" vertex="1">
          <mxGeometry x="-2600" y="2690" width="175" height="41.53" as="geometry" />
        </mxCell>
        <mxCell id="vs7IeHukqz62ipAJ9pRf-123" value="SiteBar" style="rounded=0;glass=0;fontFamily=Roboto Mono;fontSource=https%3A%2F%2Ffonts.googleapis.com%2Fcss%3Ffamily%3DRoboto%2BMono;align=center;verticalAlign=middle;fillColor=#D9D9D9;fontSize=16;" parent="sFut6FeqECjllhm6QVjB-1" vertex="1">
          <mxGeometry x="-2512.7499999999995" y="2641" width="400" height="30" as="geometry" />
        </mxCell>
        <mxCell id="vs7IeHukqz62ipAJ9pRf-124" value="Footer" style="rounded=0;glass=0;fontFamily=Roboto Mono;fontSource=https%3A%2F%2Ffonts.googleapis.com%2Fcss%3Ffamily%3DRoboto%2BMono;align=center;verticalAlign=middle;fillColor=#D9D9D9;fontSize=16;" parent="sFut6FeqECjllhm6QVjB-1" vertex="1">
          <mxGeometry x="-2524.05" y="3305" width="415.5" height="30" as="geometry" />
        </mxCell>
        <mxCell id="vs7IeHukqz62ipAJ9pRf-128" value="&lt;font style=&quot;font-size: 13px&quot;&gt;BLOCK&lt;/font&gt;" style="verticalLabelPosition=middle;verticalAlign=top;html=1;shape=mxgraph.basic.diag_round_rect;dx=6;rounded=0;shadow=0;sketch=0;fontFamily=Roboto Mono;fontSize=15;align=center;points=[[0,0.25],[0,0.5],[0,0.75],[0.25,0],[0.5,0],[0.75,0],[1,0.25],[1,0.5],[1,0.75],[0.25,1],[0.5,1],[0.75,1]];snapToPoint=1;labelPosition=center;strokeColor=#23445d;whiteSpace=wrap;spacingLeft=11;spacingRight=3;spacingBottom=3;spacingTop=3;fontSource=https%3A%2F%2Ffonts.googleapis.com%2Fcss%3Ffamily%3DRoboto%2BMono;fillColor=#bac8d3;" parent="sFut6FeqECjllhm6QVjB-1" vertex="1">
          <mxGeometry x="-2424.996790123457" y="2900" width="146.91358024691357" height="35" as="geometry" />
        </mxCell>
        <mxCell id="vs7IeHukqz62ipAJ9pRf-129" value="&lt;font style=&quot;font-size: 13px&quot;&gt;BLOCK&lt;/font&gt;" style="verticalLabelPosition=middle;verticalAlign=top;html=1;shape=mxgraph.basic.diag_round_rect;dx=6;rounded=0;shadow=0;sketch=0;fontFamily=Roboto Mono;fontSize=15;align=center;points=[[0,0.25],[0,0.5],[0,0.75],[0.25,0],[0.5,0],[0.75,0],[1,0.25],[1,0.5],[1,0.75],[0.25,1],[0.5,1],[0.75,1]];snapToPoint=1;labelPosition=center;strokeColor=#23445d;whiteSpace=wrap;spacingLeft=11;spacingRight=3;spacingBottom=3;spacingTop=3;fontSource=https%3A%2F%2Ffonts.googleapis.com%2Fcss%3Ffamily%3DRoboto%2BMono;fillColor=#bac8d3;" parent="sFut6FeqECjllhm6QVjB-1" vertex="1">
          <mxGeometry x="-2424.996790123457" y="2950" width="146.91358024691357" height="35" as="geometry" />
        </mxCell>
        <mxCell id="vs7IeHukqz62ipAJ9pRf-138" value="ArticleINfo" style="verticalLabelPosition=middle;verticalAlign=top;html=1;shape=mxgraph.basic.diag_snip_rect;dx=6;rounded=1;glass=0;fontFamily=Roboto Mono;fontSource=https://fonts.googleapis.com/css?family=Roboto+Mono;fillColor=#b1ddf0;strokeColor=#10739e;labelPosition=center;align=center;" parent="sFut6FeqECjllhm6QVjB-1" vertex="1">
          <mxGeometry x="-2508.38" y="2780" width="370" height="25.91" as="geometry" />
        </mxCell>
        <mxCell id="tfkPu7cL_q4CPY7hSsbs-138" value="" style="group" vertex="1" connectable="0" parent="sFut6FeqECjllhm6QVjB-1">
          <mxGeometry x="-3276.61" y="2065" width="213.23000000000002" height="130" as="geometry" />
        </mxCell>
        <mxCell id="tfkPu7cL_q4CPY7hSsbs-117" value="BLOCK GRID" style="verticalLabelPosition=middle;verticalAlign=top;shape=mxgraph.basic.diag_round_rect;dx=6;rounded=0;shadow=0;sketch=0;fontFamily=Roboto Mono;fontSize=14;align=center;points=[[0,0.25],[0,0.5],[0,0.75],[0.25,0],[0.5,0],[0.75,0],[1,0.25],[1,0.5],[1,0.75],[0.25,1],[0.5,1],[0.75,1]];snapToPoint=1;labelPosition=center;strokeColor=#23445d;spacingLeft=11;spacingRight=3;spacingBottom=3;spacingTop=3;fontSource=https%3A%2F%2Ffonts.googleapis.com%2Fcss%3Ffamily%3DRoboto%2BMono;fillColor=#bac8d3;" vertex="1" parent="tfkPu7cL_q4CPY7hSsbs-138">
          <mxGeometry width="213.23" height="130" as="geometry" />
        </mxCell>
        <mxCell id="tfkPu7cL_q4CPY7hSsbs-122" value="" style="group" vertex="1" connectable="0" parent="tfkPu7cL_q4CPY7hSsbs-138">
          <mxGeometry x="96.61999999999989" y="29.230000000000018" width="110" height="90" as="geometry" />
        </mxCell>
        <mxCell id="tfkPu7cL_q4CPY7hSsbs-123" value="COLUMN" style="rounded=1;whiteSpace=wrap;html=1;pointerEvents=0;fontFamily=Roboto;fontSource=https%3A%2F%2Ffonts.googleapis.com%2Fcss%3Ffamily%3DRoboto;fontSize=12;fontColor=default;fillColor=#EDEDED;gradientColor=none;strokeWidth=1;verticalAlign=top;strokeColor=#10739E;" vertex="1" parent="tfkPu7cL_q4CPY7hSsbs-122">
          <mxGeometry width="110" height="90" as="geometry" />
        </mxCell>
        <mxCell id="tfkPu7cL_q4CPY7hSsbs-124" value="ELEMENT" style="verticalLabelPosition=middle;verticalAlign=middle;html=1;shape=mxgraph.basic.diag_snip_rect;dx=6;rounded=1;glass=0;fontFamily=Roboto;fontSource=https%3A%2F%2Ffonts.googleapis.com%2Fcss%3Ffamily%3DRoboto;fillColor=#b1ddf0;strokeColor=none;labelPosition=center;align=center;fontSize=10;" vertex="1" parent="tfkPu7cL_q4CPY7hSsbs-122">
          <mxGeometry x="3.670000000000016" y="30" width="102.66" height="20" as="geometry" />
        </mxCell>
        <mxCell id="tfkPu7cL_q4CPY7hSsbs-125" value="ELEMENT" style="verticalLabelPosition=middle;verticalAlign=middle;html=1;shape=mxgraph.basic.diag_snip_rect;dx=6;rounded=1;glass=0;fontFamily=Roboto;fontSource=https%3A%2F%2Ffonts.googleapis.com%2Fcss%3Ffamily%3DRoboto;fillColor=#b1ddf0;strokeColor=none;labelPosition=center;align=center;fontSize=10;" vertex="1" parent="tfkPu7cL_q4CPY7hSsbs-122">
          <mxGeometry x="3.670000000000016" y="55" width="102.66" height="20" as="geometry" />
        </mxCell>
        <mxCell id="tfkPu7cL_q4CPY7hSsbs-145" value="ArticleSection" style="verticalLabelPosition=middle;verticalAlign=top;html=1;shape=mxgraph.basic.diag_round_rect;dx=6;rounded=1;glass=0;fontFamily=Roboto Mono;fontSource=https://fonts.googleapis.com/css?family=Roboto+Mono;fontSize=14;fillColor=#ffff88;strokeColor=#36393d;labelPosition=center;align=center;dashed=1;" vertex="1" parent="sFut6FeqECjllhm6QVjB-1">
          <mxGeometry x="-2485" y="3033" width="340" height="237" as="geometry" />
        </mxCell>
        <mxCell id="tfkPu7cL_q4CPY7hSsbs-146" value="BlockWrapper" style="rounded=0;whiteSpace=wrap;html=1;pointerEvents=0;fontFamily=Roboto;fontSize=16;fillColor=#ffe6cc;strokeColor=#d79b00;fontSource=https%3A%2F%2Ffonts.googleapis.com%2Fcss%3Ffamily%3DRoboto;verticalAlign=top;" vertex="1" parent="sFut6FeqECjllhm6QVjB-1">
          <mxGeometry x="-2455.25" y="3066.5" width="285" height="170" as="geometry" />
        </mxCell>
        <mxCell id="tfkPu7cL_q4CPY7hSsbs-139" value="" style="group" vertex="1" connectable="0" parent="sFut6FeqECjllhm6QVjB-1">
          <mxGeometry x="-2430.25" y="3096.5" width="213.23000000000002" height="130" as="geometry" />
        </mxCell>
        <mxCell id="tfkPu7cL_q4CPY7hSsbs-140" value="BLOCK GRID" style="verticalLabelPosition=middle;verticalAlign=top;shape=mxgraph.basic.diag_round_rect;dx=6;rounded=0;shadow=0;sketch=0;fontFamily=Roboto Mono;fontSize=14;align=center;points=[[0,0.25],[0,0.5],[0,0.75],[0.25,0],[0.5,0],[0.75,0],[1,0.25],[1,0.5],[1,0.75],[0.25,1],[0.5,1],[0.75,1]];snapToPoint=1;labelPosition=center;strokeColor=#23445d;spacingLeft=11;spacingRight=3;spacingBottom=3;spacingTop=3;fontSource=https%3A%2F%2Ffonts.googleapis.com%2Fcss%3Ffamily%3DRoboto%2BMono;fillColor=#bac8d3;" vertex="1" parent="tfkPu7cL_q4CPY7hSsbs-139">
          <mxGeometry width="213.23" height="130" as="geometry" />
        </mxCell>
        <mxCell id="tfkPu7cL_q4CPY7hSsbs-141" value="" style="group" vertex="1" connectable="0" parent="tfkPu7cL_q4CPY7hSsbs-139">
          <mxGeometry x="96.61999999999989" y="29.230000000000018" width="110" height="90" as="geometry" />
        </mxCell>
        <mxCell id="tfkPu7cL_q4CPY7hSsbs-142" value="COLUMN" style="rounded=1;whiteSpace=wrap;html=1;pointerEvents=0;fontFamily=Roboto;fontSource=https%3A%2F%2Ffonts.googleapis.com%2Fcss%3Ffamily%3DRoboto;fontSize=12;fontColor=default;fillColor=#EDEDED;gradientColor=none;strokeWidth=1;verticalAlign=top;strokeColor=#10739E;" vertex="1" parent="tfkPu7cL_q4CPY7hSsbs-141">
          <mxGeometry width="110" height="90" as="geometry" />
        </mxCell>
        <mxCell id="tfkPu7cL_q4CPY7hSsbs-143" value="ELEMENT" style="verticalLabelPosition=middle;verticalAlign=middle;html=1;shape=mxgraph.basic.diag_snip_rect;dx=6;rounded=1;glass=0;fontFamily=Roboto;fontSource=https%3A%2F%2Ffonts.googleapis.com%2Fcss%3Ffamily%3DRoboto;fillColor=#b1ddf0;strokeColor=none;labelPosition=center;align=center;fontSize=10;" vertex="1" parent="tfkPu7cL_q4CPY7hSsbs-141">
          <mxGeometry x="3.670000000000016" y="30" width="102.66" height="20" as="geometry" />
        </mxCell>
        <mxCell id="tfkPu7cL_q4CPY7hSsbs-144" value="ELEMENT" style="verticalLabelPosition=middle;verticalAlign=middle;html=1;shape=mxgraph.basic.diag_snip_rect;dx=6;rounded=1;glass=0;fontFamily=Roboto;fontSource=https%3A%2F%2Ffonts.googleapis.com%2Fcss%3Ffamily%3DRoboto;fillColor=#b1ddf0;strokeColor=none;labelPosition=center;align=center;fontSize=10;" vertex="1" parent="tfkPu7cL_q4CPY7hSsbs-141">
          <mxGeometry x="3.670000000000016" y="55" width="102.66" height="20" as="geometry" />
        </mxCell>
        <mxCell id="tfkPu7cL_q4CPY7hSsbs-92" value="PAGES" style="text;strokeColor=none;fillColor=none;align=center;verticalAlign=middle;rounded=0;labelBackgroundColor=#FFFFFF;pointerEvents=0;fontFamily=Roboto;fontSource=https%3A%2F%2Ffonts.googleapis.com%2Fcss%3Ffamily%3DRoboto;fontSize=24;fontColor=default;fontStyle=1" vertex="1" parent="sFut6FeqECjllhm6QVjB-1">
          <mxGeometry x="-3169.5" y="3410" width="439" height="40" as="geometry" />
        </mxCell>
        <mxCell id="sFut6FeqECjllhm6QVjB-82" value="&lt;font data-font-src=&quot;https://fonts.googleapis.com/css?family=Roboto+Mono&quot; style=&quot;font-size: 16px&quot;&gt;layout/site&lt;/font&gt;" style="shape=partialRectangle;html=1;top=1;align=center;dashed=1;strokeWidth=1;labelPosition=center;verticalLabelPosition=middle;verticalAlign=top;fillColor=#cdeb8b;strokeColor=#36393d;spacingLeft=4;fontFamily=Roboto Mono;fontSource=https://fonts.googleapis.com/css?family=Roboto+Mono;fontSize=16;" parent="sFut6FeqECjllhm6QVjB-1" vertex="1">
          <mxGeometry x="-3180" y="3471" width="450" height="669" as="geometry" />
        </mxCell>
        <mxCell id="sFut6FeqECjllhm6QVjB-9" value="SiteBar" style="rounded=0;glass=0;fontFamily=Roboto Mono;fontSource=https%3A%2F%2Ffonts.googleapis.com%2Fcss%3Ffamily%3DRoboto%2BMono;align=center;verticalAlign=middle;fillColor=#D9D9D9;fontSize=16;" parent="sFut6FeqECjllhm6QVjB-1" vertex="1">
          <mxGeometry x="-3149.9999999999995" y="3510" width="400" height="30" as="geometry" />
        </mxCell>
        <mxCell id="vs7IeHukqz62ipAJ9pRf-6" value="Footer" style="rounded=0;glass=0;fontFamily=Roboto Mono;fontSource=https%3A%2F%2Ffonts.googleapis.com%2Fcss%3Ffamily%3DRoboto%2BMono;align=center;verticalAlign=middle;fillColor=#D9D9D9;fontSize=16;" parent="sFut6FeqECjllhm6QVjB-1" vertex="1">
          <mxGeometry x="-3165" y="4080" width="415.5" height="30" as="geometry" />
        </mxCell>
        <mxCell id="tfkPu7cL_q4CPY7hSsbs-15" value="" style="group" vertex="1" connectable="0" parent="sFut6FeqECjllhm6QVjB-1">
          <mxGeometry x="-3205" y="3550" width="500" height="511" as="geometry" />
        </mxCell>
        <mxCell id="vs7IeHukqz62ipAJ9pRf-16" value="pages/[slug]" style="rounded=0;whiteSpace=wrap;html=1;fontFamily=Roboto;fontSource=https%3A%2F%2Ffonts.googleapis.com%2Fcss%3Ffamily%3DRoboto;fontSize=16;align=left;labelPosition=center;verticalLabelPosition=middle;verticalAlign=top;fontStyle=1;spacingLeft=5;" parent="tfkPu7cL_q4CPY7hSsbs-15" vertex="1">
          <mxGeometry width="500" height="511" as="geometry" />
        </mxCell>
        <mxCell id="sFut6FeqECjllhm6QVjB-77" value="PageSectionsContainer" style="verticalLabelPosition=middle;verticalAlign=top;shape=mxgraph.basic.diag_round_rect;dx=6;rounded=1;glass=0;fontFamily=Roboto Mono;fontSource=https://fonts.googleapis.com/css?family=Roboto+Mono;fontSize=14;fillColor=#FFFFCC;strokeColor=#CCCC00;labelPosition=center;align=center;dashed=1;strokeWidth=3;" parent="tfkPu7cL_q4CPY7hSsbs-15" vertex="1">
          <mxGeometry x="57.5" y="37.163636363636364" width="402.5" height="427.3818181818182" as="geometry" />
        </mxCell>
        <mxCell id="vs7IeHukqz62ipAJ9pRf-12" value="PageSection" style="verticalLabelPosition=middle;verticalAlign=top;html=1;shape=mxgraph.basic.diag_round_rect;dx=6;rounded=1;glass=0;fontFamily=Roboto Mono;fontSource=https://fonts.googleapis.com/css?family=Roboto+Mono;fontSize=14;fillColor=#ffff88;strokeColor=#36393d;labelPosition=center;align=center;dashed=1;" parent="tfkPu7cL_q4CPY7hSsbs-15" vertex="1">
          <mxGeometry x="80" y="408.8" width="347.25" height="46.45454545454545" as="geometry" />
        </mxCell>
        <mxCell id="vs7IeHukqz62ipAJ9pRf-7" value="PageSection" style="verticalLabelPosition=middle;verticalAlign=top;shape=mxgraph.basic.diag_round_rect;dx=6;rounded=1;glass=0;fontFamily=Roboto Mono;fontSource=https://fonts.googleapis.com/css?family=Roboto+Mono;fontSize=14;fillColor=#ffff88;strokeColor=#36393d;labelPosition=center;align=center;dashed=1;" parent="tfkPu7cL_q4CPY7hSsbs-15" vertex="1">
          <mxGeometry x="80" y="68.75272727272727" width="352" height="330.75636363636363" as="geometry" />
        </mxCell>
        <mxCell id="sFut6FeqECjllhm6QVjB-124" value="SectionImage" style="verticalLabelPosition=middle;verticalAlign=top;html=1;shape=mxgraph.basic.diag_snip_rect;dx=6;rounded=1;glass=0;fontFamily=Roboto Mono;fontSource=https%3A%2F%2Ffonts.googleapis.com%2Fcss%3Ffamily%3DRoboto%2BMono;fillColor=#b1ddf0;strokeColor=#10739e;labelPosition=center;align=center;" parent="tfkPu7cL_q4CPY7hSsbs-15" vertex="1">
          <mxGeometry x="94.74950617283946" y="101.36381818181809" width="134.320987654321" height="32.42527272727273" as="geometry" />
        </mxCell>
        <mxCell id="vs7IeHukqz62ipAJ9pRf-154" value="BlockWrapper" style="rounded=0;whiteSpace=wrap;html=1;pointerEvents=0;fontFamily=Roboto;fontSize=14;fillColor=#ffe6cc;strokeColor=#d79b00;fontSource=https://fonts.googleapis.com/css?family=Roboto;verticalAlign=top;" parent="tfkPu7cL_q4CPY7hSsbs-15" vertex="1">
          <mxGeometry x="94.75" y="139.36363636363637" width="328" height="241.56363636363636" as="geometry" />
        </mxCell>
        <mxCell id="tfkPu7cL_q4CPY7hSsbs-16" value="" style="group" vertex="1" connectable="0" parent="tfkPu7cL_q4CPY7hSsbs-15">
          <mxGeometry x="115.88999999999987" y="167.23636363636362" width="285.73" height="202.9784909090907" as="geometry" />
        </mxCell>
        <mxCell id="sFut6FeqECjllhm6QVjB-78" value="BLOCK" style="verticalLabelPosition=middle;verticalAlign=top;shape=mxgraph.basic.diag_round_rect;dx=6;rounded=0;shadow=0;sketch=0;fontFamily=Roboto Mono;fontSize=12;align=center;points=[[0,0.25],[0,0.5],[0,0.75],[0.25,0],[0.5,0],[0.75,0],[1,0.25],[1,0.5],[1,0.75],[0.25,1],[0.5,1],[0.75,1]];snapToPoint=1;labelPosition=center;strokeColor=#23445d;spacingLeft=11;spacingRight=3;spacingBottom=3;spacingTop=3;fontSource=https%3A%2F%2Ffonts.googleapis.com%2Fcss%3Ffamily%3DRoboto%2BMono;fillColor=#bac8d3;" parent="tfkPu7cL_q4CPY7hSsbs-16" vertex="1">
          <mxGeometry x="2.2700000000000102" width="283.46" height="32.518181818181816" as="geometry" />
        </mxCell>
        <mxCell id="vs7IeHukqz62ipAJ9pRf-9" value="BLOCK" style="verticalLabelPosition=middle;verticalAlign=top;shape=mxgraph.basic.diag_round_rect;dx=6;rounded=0;shadow=0;sketch=0;fontFamily=Roboto Mono;fontSize=12;align=center;points=[[0,0.25],[0,0.5],[0,0.75],[0.25,0],[0.5,0],[0.75,0],[1,0.25],[1,0.5],[1,0.75],[0.25,1],[0.5,1],[0.75,1]];snapToPoint=1;labelPosition=center;strokeColor=#23445d;spacingLeft=11;spacingRight=3;spacingBottom=3;spacingTop=3;fontSource=https%3A%2F%2Ffonts.googleapis.com%2Fcss%3Ffamily%3DRoboto%2BMono;fillColor=#bac8d3;" parent="tfkPu7cL_q4CPY7hSsbs-16" vertex="1">
          <mxGeometry x="2.2700000000000102" y="40.38758181818163" width="283.46" height="120.78181818181818" as="geometry" />
        </mxCell>
        <mxCell id="tfkPu7cL_q4CPY7hSsbs-8" value="" style="group" vertex="1" connectable="0" parent="tfkPu7cL_q4CPY7hSsbs-16">
          <mxGeometry x="15.730000000000018" y="65.00849090909072" width="110" height="83.61818181818181" as="geometry" />
        </mxCell>
        <mxCell id="vs7IeHukqz62ipAJ9pRf-156" value="COLUMN" style="rounded=1;whiteSpace=wrap;html=1;pointerEvents=0;fontFamily=Roboto;fontSource=https%3A%2F%2Ffonts.googleapis.com%2Fcss%3Ffamily%3DRoboto;fontSize=12;fontColor=default;fillColor=#EDEDED;gradientColor=none;strokeWidth=1;verticalAlign=top;strokeColor=#10739E;" parent="tfkPu7cL_q4CPY7hSsbs-8" vertex="1">
          <mxGeometry width="110" height="83.61818181818181" as="geometry" />
        </mxCell>
        <mxCell id="vs7IeHukqz62ipAJ9pRf-157" value="ELEMENT" style="verticalLabelPosition=middle;verticalAlign=middle;html=1;shape=mxgraph.basic.diag_snip_rect;dx=6;rounded=1;glass=0;fontFamily=Roboto;fontSource=https%3A%2F%2Ffonts.googleapis.com%2Fcss%3Ffamily%3DRoboto;fillColor=#b1ddf0;strokeColor=none;labelPosition=center;align=center;fontSize=10;" parent="tfkPu7cL_q4CPY7hSsbs-8" vertex="1">
          <mxGeometry x="3.670000000000016" y="27.872727272727268" width="102.66" height="18.58181818181818" as="geometry" />
        </mxCell>
        <mxCell id="tfkPu7cL_q4CPY7hSsbs-2" value="ELEMENT" style="verticalLabelPosition=middle;verticalAlign=middle;html=1;shape=mxgraph.basic.diag_snip_rect;dx=6;rounded=1;glass=0;fontFamily=Roboto;fontSource=https%3A%2F%2Ffonts.googleapis.com%2Fcss%3Ffamily%3DRoboto;fillColor=#b1ddf0;strokeColor=none;labelPosition=center;align=center;fontSize=10;" vertex="1" parent="tfkPu7cL_q4CPY7hSsbs-8">
          <mxGeometry x="3.670000000000016" y="51.099999999999994" width="102.66" height="18.58181818181818" as="geometry" />
        </mxCell>
        <mxCell id="tfkPu7cL_q4CPY7hSsbs-9" value="" style="group" vertex="1" connectable="0" parent="tfkPu7cL_q4CPY7hSsbs-16">
          <mxGeometry x="165.73000000000002" y="67.33121818181799" width="110" height="83.61818181818181" as="geometry" />
        </mxCell>
        <mxCell id="tfkPu7cL_q4CPY7hSsbs-10" value="COLUMN" style="rounded=1;whiteSpace=wrap;html=1;pointerEvents=0;fontFamily=Roboto;fontSource=https%3A%2F%2Ffonts.googleapis.com%2Fcss%3Ffamily%3DRoboto;fontSize=12;fontColor=default;fillColor=#EDEDED;gradientColor=none;strokeWidth=1;verticalAlign=top;strokeColor=#10739E;" vertex="1" parent="tfkPu7cL_q4CPY7hSsbs-9">
          <mxGeometry width="110" height="83.61818181818181" as="geometry" />
        </mxCell>
        <mxCell id="tfkPu7cL_q4CPY7hSsbs-11" value="ELEMENT" style="verticalLabelPosition=middle;verticalAlign=middle;html=1;shape=mxgraph.basic.diag_snip_rect;dx=6;rounded=1;glass=0;fontFamily=Roboto;fontSource=https%3A%2F%2Ffonts.googleapis.com%2Fcss%3Ffamily%3DRoboto;fillColor=#b1ddf0;strokeColor=none;labelPosition=center;align=center;fontSize=10;" vertex="1" parent="tfkPu7cL_q4CPY7hSsbs-9">
          <mxGeometry x="3.670000000000016" y="27.872727272727268" width="102.66" height="18.58181818181818" as="geometry" />
        </mxCell>
        <mxCell id="tfkPu7cL_q4CPY7hSsbs-12" value="ELEMENT" style="verticalLabelPosition=middle;verticalAlign=middle;html=1;shape=mxgraph.basic.diag_snip_rect;dx=6;rounded=1;glass=0;fontFamily=Roboto;fontSource=https%3A%2F%2Ffonts.googleapis.com%2Fcss%3Ffamily%3DRoboto;fillColor=#b1ddf0;strokeColor=none;labelPosition=center;align=center;fontSize=10;" vertex="1" parent="tfkPu7cL_q4CPY7hSsbs-9">
          <mxGeometry x="3.670000000000016" y="51.099999999999994" width="102.66" height="18.58181818181818" as="geometry" />
        </mxCell>
        <mxCell id="tfkPu7cL_q4CPY7hSsbs-13" value="BLOCK" style="verticalLabelPosition=middle;verticalAlign=top;shape=mxgraph.basic.diag_round_rect;dx=6;rounded=0;shadow=0;sketch=0;fontFamily=Roboto Mono;fontSize=12;align=center;points=[[0,0.25],[0,0.5],[0,0.75],[0.25,0],[0.5,0],[0.75,0],[1,0.25],[1,0.5],[1,0.75],[0.25,1],[0.5,1],[0.75,1]];snapToPoint=1;labelPosition=center;strokeColor=#23445d;spacingLeft=11;spacingRight=3;spacingBottom=3;spacingTop=3;fontSource=https%3A%2F%2Ffonts.googleapis.com%2Fcss%3Ffamily%3DRoboto%2BMono;fillColor=#bac8d3;" vertex="1" parent="tfkPu7cL_q4CPY7hSsbs-16">
          <mxGeometry y="170.4603090909089" width="283.46" height="32.518181818181816" as="geometry" />
        </mxCell>
        <mxCell id="tfkPu7cL_q4CPY7hSsbs-150" value="" style="group" vertex="1" connectable="0" parent="sFut6FeqECjllhm6QVjB-1">
          <mxGeometry x="-3218.08" y="4280" width="940.0000000000009" height="765.79" as="geometry" />
        </mxCell>
        <mxCell id="sFut6FeqECjllhm6QVjB-55" value="" style="html=1;shadow=0;dashed=0;align=center;verticalAlign=middle;shape=mxgraph.arrows2.stylisedArrow;dy=0.6;dx=40;notch=15;feather=0.4;rounded=1;glass=0;fontFamily=Roboto Mono;fontSource=https%3A%2F%2Ffonts.googleapis.com%2Fcss%3Ffamily%3DRoboto%2BMono;fontSize=13;strokeWidth=1;fillColor=#bac8d3;strokeColor=#23445d;opacity=75;" parent="tfkPu7cL_q4CPY7hSsbs-150" vertex="1">
          <mxGeometry x="288.0800000000004" y="148.8699999999999" width="109" height="60" as="geometry" />
        </mxCell>
        <mxCell id="sFut6FeqECjllhm6QVjB-56" value="" style="html=1;shadow=0;dashed=0;align=center;verticalAlign=middle;shape=mxgraph.arrows2.stylisedArrow;dy=0.6;dx=40;notch=15;feather=0.4;rounded=1;glass=0;fontFamily=Roboto Mono;fontSource=https%3A%2F%2Ffonts.googleapis.com%2Fcss%3Ffamily%3DRoboto%2BMono;fontSize=13;strokeWidth=1;fillColor=#b1ddf0;strokeColor=#10739e;opacity=75;" parent="tfkPu7cL_q4CPY7hSsbs-150" vertex="1">
          <mxGeometry x="538.0799999999999" y="35.91999999999973" width="101" height="60" as="geometry" />
        </mxCell>
        <mxCell id="sFut6FeqECjllhm6QVjB-57" value="" style="html=1;shadow=0;dashed=0;align=center;verticalAlign=middle;shape=mxgraph.arrows2.stylisedArrow;dy=0.6;dx=40;notch=15;feather=0.4;rounded=1;glass=0;fontFamily=Roboto Mono;fontSource=https%3A%2F%2Ffonts.googleapis.com%2Fcss%3Ffamily%3DRoboto%2BMono;fontSize=13;strokeWidth=1;fillColor=#f5f5f5;strokeColor=#666666;fontColor=#333333;opacity=75;" parent="tfkPu7cL_q4CPY7hSsbs-150" vertex="1">
          <mxGeometry x="397.0800000000004" y="187.23000000000002" width="101" height="60" as="geometry" />
        </mxCell>
        <mxCell id="sFut6FeqECjllhm6QVjB-58" value="" style="html=1;shadow=0;dashed=0;align=center;verticalAlign=middle;shape=mxgraph.arrows2.stylisedArrow;dy=0.6;dx=40;notch=15;feather=0.4;rounded=1;glass=0;fontFamily=Roboto Mono;fontSource=https%3A%2F%2Ffonts.googleapis.com%2Fcss%3Ffamily%3DRoboto%2BMono;fontSize=13;strokeWidth=1;fillColor=#6d8764;strokeColor=#3A5431;fontColor=#ffffff;opacity=75;" parent="tfkPu7cL_q4CPY7hSsbs-150" vertex="1">
          <mxGeometry x="418.0800000000004" y="265.9200000000001" width="109" height="60" as="geometry" />
        </mxCell>
        <mxCell id="sFut6FeqECjllhm6QVjB-59" value="" style="html=1;shadow=0;dashed=1;align=center;verticalAlign=middle;shape=mxgraph.arrows2.stylisedArrow;dy=0.6;dx=40;notch=15;feather=0.4;rounded=1;glass=0;fontFamily=Roboto Mono;fontSource=https%3A%2F%2Ffonts.googleapis.com%2Fcss%3Ffamily%3DRoboto%2BMono;fontSize=13;strokeWidth=1;fillColor=#ffff88;strokeColor=#36393d;opacity=75;" parent="tfkPu7cL_q4CPY7hSsbs-150" vertex="1">
          <mxGeometry x="378.0800000000004" y="166.55000000000018" width="109" height="60" as="geometry" />
        </mxCell>
        <mxCell id="sFut6FeqECjllhm6QVjB-60" value="" style="html=1;shadow=0;dashed=1;align=center;verticalAlign=middle;shape=mxgraph.arrows2.stylisedArrow;dy=0.6;dx=40;notch=15;feather=0.4;rounded=1;glass=0;fontFamily=Roboto Mono;fontSource=https%3A%2F%2Ffonts.googleapis.com%2Fcss%3Ffamily%3DRoboto%2BMono;fontSize=13;strokeWidth=1;fillColor=#cdeb8b;strokeColor=#36393d;opacity=75;" parent="tfkPu7cL_q4CPY7hSsbs-150" vertex="1">
          <mxGeometry x="378.0800000000004" y="87.17999999999972" width="138" height="60" as="geometry" />
        </mxCell>
        <mxCell id="sFut6FeqECjllhm6QVjB-51" value="&lt;font face=&quot;Roboto Mono&quot; data-font-src=&quot;https://fonts.googleapis.com/css?family=Roboto+Mono&quot;&gt;_document&lt;/font&gt;" style="shape=partialRectangle;html=1;top=1;align=left;dashed=1;strokeWidth=2;labelPosition=center;verticalLabelPosition=middle;verticalAlign=top;spacingLeft=8;fillColor=#f8cecc;strokeColor=#b85450;" parent="tfkPu7cL_q4CPY7hSsbs-150" vertex="1">
          <mxGeometry x="4.547473508864641e-13" width="243" height="379" as="geometry" />
        </mxCell>
        <mxCell id="sFut6FeqECjllhm6QVjB-52" value="_app" style="shape=partialRectangle;html=1;top=1;align=left;dashed=1;strokeWidth=1;labelPosition=center;verticalLabelPosition=middle;verticalAlign=top;strokeColor=#432D57;fillColor=#76608a;spacingLeft=4;fontFamily=Roboto Mono;fontSource=https%3A%2F%2Ffonts.googleapis.com%2Fcss%3Ffamily%3DRoboto%2BMono;fontColor=#ffffff;" parent="tfkPu7cL_q4CPY7hSsbs-150" vertex="1">
          <mxGeometry x="18.250000000000455" y="44.78999999999985" width="206.5" height="312" as="geometry" />
        </mxCell>
        <mxCell id="sFut6FeqECjllhm6QVjB-53" value="THEME" style="verticalLabelPosition=middle;verticalAlign=top;html=1;shape=mxgraph.basic.plaque;dx=6;rounded=1;glass=0;dashed=1;fontFamily=Roboto Mono;fontSource=https%3A%2F%2Ffonts.googleapis.com%2Fcss%3Ffamily%3DRoboto%2BMono;fontSize=13;fillColor=#d0cee2;strokeColor=#56517e;labelPosition=center;align=left;spacingLeft=20;" parent="tfkPu7cL_q4CPY7hSsbs-150" vertex="1">
          <mxGeometry x="41.000000000000455" y="85.41999999999996" width="161" height="240.5" as="geometry" />
        </mxCell>
        <mxCell id="sFut6FeqECjllhm6QVjB-4" value="&lt;font data-font-src=&quot;https://fonts.googleapis.com/css?family=Roboto+Mono&quot; style=&quot;font-size: 13px;&quot;&gt;LAYOUT&lt;/font&gt;" style="shape=partialRectangle;html=1;top=1;align=center;dashed=1;strokeWidth=1;labelPosition=center;verticalLabelPosition=middle;verticalAlign=top;fillColor=#cdeb8b;strokeColor=#36393d;spacingLeft=4;fontFamily=Roboto Mono;fontSource=https%3A%2F%2Ffonts.googleapis.com%2Fcss%3Ffamily%3DRoboto%2BMono;fontSize=13;" parent="tfkPu7cL_q4CPY7hSsbs-150" vertex="1">
          <mxGeometry y="454.78999999999996" width="211" height="280" as="geometry" />
        </mxCell>
        <mxCell id="sFut6FeqECjllhm6QVjB-5" value="CONTAINER" style="verticalLabelPosition=middle;verticalAlign=top;html=1;shape=mxgraph.basic.diag_round_rect;dx=6;rounded=1;glass=0;fontFamily=Roboto Mono;fontSource=https%3A%2F%2Ffonts.googleapis.com%2Fcss%3Ffamily%3DRoboto%2BMono;fontSize=13;fillColor=#ffff88;strokeColor=#36393d;labelPosition=center;align=center;dashed=1;" parent="tfkPu7cL_q4CPY7hSsbs-150" vertex="1">
          <mxGeometry x="12.00000000000091" y="500.78999999999996" width="175" height="54" as="geometry" />
        </mxCell>
        <mxCell id="tfkPu7cL_q4CPY7hSsbs-149" value="" style="group" vertex="1" connectable="0" parent="tfkPu7cL_q4CPY7hSsbs-150">
          <mxGeometry x="260.0000000000009" y="454.78999999999996" width="680" height="311" as="geometry" />
        </mxCell>
        <mxCell id="sFut6FeqECjllhm6QVjB-24" value="" style="group" parent="tfkPu7cL_q4CPY7hSsbs-149" vertex="1" connectable="0">
          <mxGeometry y="1.9895196601282805e-13" width="200" height="263.6199999999999" as="geometry" />
        </mxCell>
        <mxCell id="sFut6FeqECjllhm6QVjB-25" value="&lt;font style=&quot;font-size: 13px&quot;&gt;MODULE&lt;/font&gt;" style="verticalLabelPosition=middle;verticalAlign=top;html=1;shape=mxgraph.basic.diag_round_rect;dx=6;rounded=0;shadow=0;sketch=0;fontFamily=Roboto Mono;fontSize=15;align=center;points=[[0,0.25],[0,0.5],[0,0.75],[0.25,0],[0.5,0],[0.75,0],[1,0.25],[1,0.5],[1,0.75],[0.25,1],[0.5,1],[0.75,1]];snapToPoint=1;labelPosition=center;strokeColor=#23445d;whiteSpace=wrap;spacingLeft=11;spacingRight=3;spacingBottom=3;spacingTop=3;fontSource=https%3A%2F%2Ffonts.googleapis.com%2Fcss%3Ffamily%3DRoboto%2BMono;fillColor=#bac8d3;" parent="sFut6FeqECjllhm6QVjB-24" vertex="1">
          <mxGeometry width="200" height="263.62" as="geometry" />
        </mxCell>
        <mxCell id="sFut6FeqECjllhm6QVjB-26" value="ELEMENT" style="verticalLabelPosition=middle;verticalAlign=top;html=1;shape=mxgraph.basic.diag_snip_rect;dx=6;rounded=1;glass=0;fontFamily=Roboto Mono;fontSource=https%3A%2F%2Ffonts.googleapis.com%2Fcss%3Ffamily%3DRoboto%2BMono;fillColor=#b1ddf0;strokeColor=#10739e;labelPosition=center;align=center;" parent="sFut6FeqECjllhm6QVjB-24" vertex="1">
          <mxGeometry x="11" y="99.61999999999989" width="175" height="46" as="geometry" />
        </mxCell>
        <mxCell id="sFut6FeqECjllhm6QVjB-27" value="" style="group" parent="sFut6FeqECjllhm6QVjB-24" connectable="0" vertex="1">
          <mxGeometry x="15" y="36.35999999999967" width="175" height="51.51" as="geometry" />
        </mxCell>
        <mxCell id="sFut6FeqECjllhm6QVjB-28" value="" style="rounded=0;whiteSpace=wrap;html=1;glass=0;fontFamily=Roboto Mono;fontSource=https%3A%2F%2Ffonts.googleapis.com%2Fcss%3Ffamily%3DRoboto%2BMono;align=center;verticalAlign=top;fillColor=#D9D9D9;" parent="sFut6FeqECjllhm6QVjB-27" vertex="1">
          <mxGeometry width="168.3783783783784" height="51.51" as="geometry" />
        </mxCell>
        <mxCell id="sFut6FeqECjllhm6QVjB-29" value="&lt;font face=&quot;Roboto Mono&quot; data-font-src=&quot;https://fonts.googleapis.com/css?family=Roboto+Mono&quot;&gt;COMPONENT&lt;/font&gt;" style="shape=umlFrame;whiteSpace=wrap;html=1;width=120;height=30;boundedLbl=1;verticalAlign=middle;align=left;spacingLeft=5;fillColor=#f5f5f5;strokeColor=#666666;fontColor=#333333;" parent="sFut6FeqECjllhm6QVjB-27" vertex="1">
          <mxGeometry width="168.3783783783784" height="51.51" as="geometry" />
        </mxCell>
        <mxCell id="sFut6FeqECjllhm6QVjB-30" value="local State" style="shape=umlState;rounded=1;verticalAlign=top;spacingTop=5;umlStateSymbol=collapseState;absoluteArcSize=1;arcSize=10;strokeWidth=1;html=1;align=left;spacingLeft=9;" parent="sFut6FeqECjllhm6QVjB-24" vertex="1">
          <mxGeometry x="40" y="215.47999999999956" width="140" height="34.97" as="geometry" />
        </mxCell>
        <mxCell id="sFut6FeqECjllhm6QVjB-31" value="ELEMENT" style="verticalLabelPosition=middle;verticalAlign=top;html=1;shape=mxgraph.basic.diag_snip_rect;dx=6;rounded=1;glass=0;fontFamily=Roboto Mono;fontSource=https%3A%2F%2Ffonts.googleapis.com%2Fcss%3Ffamily%3DRoboto%2BMono;fillColor=#b1ddf0;strokeColor=#10739e;labelPosition=center;align=center;" parent="sFut6FeqECjllhm6QVjB-24" vertex="1">
          <mxGeometry x="13" y="156.71999999999935" width="175" height="46" as="geometry" />
        </mxCell>
        <mxCell id="sFut6FeqECjllhm6QVjB-32" value="" style="group" parent="tfkPu7cL_q4CPY7hSsbs-149" vertex="1" connectable="0">
          <mxGeometry x="240" width="199.99999999999955" height="311" as="geometry" />
        </mxCell>
        <mxCell id="sFut6FeqECjllhm6QVjB-33" value="" style="rounded=0;whiteSpace=wrap;html=1;glass=0;fontFamily=Roboto Mono;fontSource=https%3A%2F%2Ffonts.googleapis.com%2Fcss%3Ffamily%3DRoboto%2BMono;align=center;verticalAlign=top;fillColor=#D9D9D9;" parent="sFut6FeqECjllhm6QVjB-32" vertex="1">
          <mxGeometry width="200" height="311" as="geometry" />
        </mxCell>
        <mxCell id="sFut6FeqECjllhm6QVjB-34" value="&lt;font face=&quot;Roboto Mono&quot; data-font-src=&quot;https://fonts.googleapis.com/css?family=Roboto+Mono&quot;&gt;COMPONENT&lt;/font&gt;" style="shape=umlFrame;whiteSpace=wrap;html=1;width=120;height=30;boundedLbl=1;verticalAlign=middle;align=left;spacingLeft=5;fillColor=#f5f5f5;strokeColor=#666666;fontColor=#333333;" parent="sFut6FeqECjllhm6QVjB-32" vertex="1">
          <mxGeometry width="119" height="30" as="geometry" />
        </mxCell>
        <mxCell id="sFut6FeqECjllhm6QVjB-35" value="ELEMENT" style="verticalLabelPosition=middle;verticalAlign=top;html=1;shape=mxgraph.basic.diag_snip_rect;dx=6;rounded=1;glass=0;fontFamily=Roboto Mono;fontSource=https%3A%2F%2Ffonts.googleapis.com%2Fcss%3Ffamily%3DRoboto%2BMono;fillColor=#b1ddf0;strokeColor=#10739e;labelPosition=center;align=center;" parent="sFut6FeqECjllhm6QVjB-32" vertex="1">
          <mxGeometry x="18.409999999999854" y="43" width="160" height="51" as="geometry" />
        </mxCell>
        <mxCell id="sFut6FeqECjllhm6QVjB-36" value="ELEMENT" style="verticalLabelPosition=middle;verticalAlign=top;html=1;shape=mxgraph.basic.diag_snip_rect;dx=6;rounded=1;glass=0;fontFamily=Roboto Mono;fontSource=https%3A%2F%2Ffonts.googleapis.com%2Fcss%3Ffamily%3DRoboto%2BMono;fillColor=#b1ddf0;strokeColor=#10739e;labelPosition=center;align=center;" parent="sFut6FeqECjllhm6QVjB-32" vertex="1">
          <mxGeometry x="15" y="103" width="160" height="51" as="geometry" />
        </mxCell>
        <mxCell id="sFut6FeqECjllhm6QVjB-37" value="ELEMENT" style="verticalLabelPosition=middle;verticalAlign=top;html=1;shape=mxgraph.basic.diag_snip_rect;dx=6;rounded=1;glass=0;fontFamily=Roboto Mono;fontSource=https%3A%2F%2Ffonts.googleapis.com%2Fcss%3Ffamily%3DRoboto%2BMono;fillColor=#b1ddf0;strokeColor=#10739e;labelPosition=center;align=center;" parent="sFut6FeqECjllhm6QVjB-32" vertex="1">
          <mxGeometry x="18.399999999999636" y="171.57999999999993" width="160" height="51" as="geometry" />
        </mxCell>
        <mxCell id="sFut6FeqECjllhm6QVjB-38" value="" style="group" parent="sFut6FeqECjllhm6QVjB-32" connectable="0" vertex="1">
          <mxGeometry x="18.409999999999854" y="267.0300000000002" width="140" height="34.97000000000003" as="geometry" />
        </mxCell>
        <mxCell id="sFut6FeqECjllhm6QVjB-39" value="NO STATE" style="shape=umlState;rounded=1;verticalAlign=top;spacingTop=5;umlStateSymbol=collapseState;absoluteArcSize=1;arcSize=10;strokeWidth=1;html=1;align=left;spacingLeft=9;" parent="sFut6FeqECjllhm6QVjB-38" vertex="1">
          <mxGeometry width="140" height="34.97" as="geometry" />
        </mxCell>
        <mxCell id="sFut6FeqECjllhm6QVjB-40" value="" style="aspect=fixed;pointerEvents=1;shadow=0;dashed=0;html=1;strokeColor=none;labelPosition=center;verticalLabelPosition=bottom;verticalAlign=top;align=center;shape=mxgraph.mscae.enterprise.not_allowed;fillColor=#EA1C24;" parent="sFut6FeqECjllhm6QVjB-38" vertex="1">
          <mxGeometry x="102" y="6.480000000000018" width="26" height="26" as="geometry" />
        </mxCell>
        <mxCell id="sFut6FeqECjllhm6QVjB-41" value="" style="group" parent="tfkPu7cL_q4CPY7hSsbs-149" vertex="1" connectable="0">
          <mxGeometry x="479.99999999999955" y="1.1368683772161603e-13" width="200" height="122" as="geometry" />
        </mxCell>
        <mxCell id="sFut6FeqECjllhm6QVjB-42" value="ELEMENT" style="verticalLabelPosition=middle;verticalAlign=top;html=1;shape=mxgraph.basic.diag_snip_rect;dx=6;rounded=1;glass=0;fontFamily=Roboto Mono;fontSource=https%3A%2F%2Ffonts.googleapis.com%2Fcss%3Ffamily%3DRoboto%2BMono;fillColor=#b1ddf0;strokeColor=#10739e;labelPosition=center;align=center;" parent="sFut6FeqECjllhm6QVjB-41" vertex="1">
          <mxGeometry width="200" height="122" as="geometry" />
        </mxCell>
        <mxCell id="sFut6FeqECjllhm6QVjB-43" value="property / value" style="fontStyle=0;dashed=1;align=center;html=1;fillColor=#1ba1e2;strokeColor=#006EAF;fontColor=#ffffff;" parent="sFut6FeqECjllhm6QVjB-41" vertex="1">
          <mxGeometry x="29" y="36" width="145" height="30" as="geometry" />
        </mxCell>
        <mxCell id="sFut6FeqECjllhm6QVjB-44" value="" style="group" parent="sFut6FeqECjllhm6QVjB-41" connectable="0" vertex="1">
          <mxGeometry x="26" y="77" width="140" height="34.97000000000003" as="geometry" />
        </mxCell>
        <mxCell id="sFut6FeqECjllhm6QVjB-45" value="NO STATE" style="shape=umlState;rounded=1;verticalAlign=top;spacingTop=5;umlStateSymbol=collapseState;absoluteArcSize=1;arcSize=10;strokeWidth=1;html=1;align=left;spacingLeft=9;" parent="sFut6FeqECjllhm6QVjB-44" vertex="1">
          <mxGeometry width="140" height="34.97" as="geometry" />
        </mxCell>
        <mxCell id="sFut6FeqECjllhm6QVjB-46" value="" style="aspect=fixed;pointerEvents=1;shadow=0;dashed=0;html=1;strokeColor=none;labelPosition=center;verticalLabelPosition=bottom;verticalAlign=top;align=center;shape=mxgraph.mscae.enterprise.not_allowed;fillColor=#EA1C24;" parent="sFut6FeqECjllhm6QVjB-44" vertex="1">
          <mxGeometry x="102" y="6.480000000000018" width="26" height="26" as="geometry" />
        </mxCell>
        <mxCell id="sFut6FeqECjllhm6QVjB-47" value="" style="group" parent="tfkPu7cL_q4CPY7hSsbs-149" vertex="1" connectable="0">
          <mxGeometry x="479" y="140.00000000000006" width="201" height="88.99000000000001" as="geometry" />
        </mxCell>
        <mxCell id="sFut6FeqECjllhm6QVjB-48" value="&lt;font style=&quot;font-size: 13px&quot;&gt;MODULE EXT&lt;/font&gt;" style="verticalLabelPosition=middle;verticalAlign=top;html=1;shape=mxgraph.basic.diag_round_rect;dx=6;rounded=0;shadow=0;sketch=0;fontFamily=Roboto Mono;fontSize=15;align=center;points=[[0,0.25],[0,0.5],[0,0.75],[0.25,0],[0.5,0],[0.75,0],[1,0.25],[1,0.5],[1,0.75],[0.25,1],[0.5,1],[0.75,1]];snapToPoint=1;labelPosition=center;strokeColor=#3A5431;whiteSpace=wrap;spacingLeft=11;spacingRight=3;spacingBottom=3;spacingTop=3;fontSource=https%3A%2F%2Ffonts.googleapis.com%2Fcss%3Ffamily%3DRoboto%2BMono;fillColor=#6d8764;fontColor=#ffffff;" parent="sFut6FeqECjllhm6QVjB-47" vertex="1">
          <mxGeometry width="200" height="88.99" as="geometry" />
        </mxCell>
        <mxCell id="sFut6FeqECjllhm6QVjB-49" value="3rd Party module" style="html=1;shape=mxgraph.infographic.ribbonSimple;notch1=0;notch2=20;align=center;verticalAlign=middle;fontSize=14;fontStyle=0;fillColor=#d5e8d4;rounded=1;glass=0;dashed=1;fontFamily=Roboto Mono;fontSource=https%3A%2F%2Ffonts.googleapis.com%2Fcss%3Ffamily%3DRoboto%2BMono;strokeWidth=2;strokeColor=#82b366;" parent="sFut6FeqECjllhm6QVjB-47" vertex="1">
          <mxGeometry x="11" y="42.720000000000255" width="190" height="40" as="geometry" />
        </mxCell>
        <mxCell id="vs7IeHukqz62ipAJ9pRf-18" value="&lt;font data-font-src=&quot;https://fonts.googleapis.com/css?family=Roboto+Mono&quot; style=&quot;font-size: 16px&quot;&gt;layout/site&lt;/font&gt;" style="shape=partialRectangle;html=1;top=1;align=center;dashed=1;strokeWidth=1;labelPosition=center;verticalLabelPosition=middle;verticalAlign=top;fillColor=#cdeb8b;strokeColor=#36393d;spacingLeft=4;fontFamily=Roboto Mono;fontSource=https://fonts.googleapis.com/css?family=Roboto+Mono;fontSize=16;" parent="sFut6FeqECjllhm6QVjB-1" vertex="1">
          <mxGeometry x="-2470" y="3460" width="680" height="750" as="geometry" />
        </mxCell>
        <mxCell id="vs7IeHukqz62ipAJ9pRf-20" value="FooterSectionsContainer" style="verticalLabelPosition=middle;verticalAlign=top;html=1;shape=mxgraph.basic.diag_round_rect;dx=6;rounded=1;glass=0;fontFamily=Roboto Mono;fontSource=https://fonts.googleapis.com/css?family=Roboto+Mono;fontSize=13;fillColor=#FFFFCC;strokeColor=#36393d;labelPosition=center;align=center;dashed=1;" parent="sFut6FeqECjllhm6QVjB-1" vertex="1">
          <mxGeometry x="-2470" y="4100" width="670" height="40" as="geometry" />
        </mxCell>
        <mxCell id="vs7IeHukqz62ipAJ9pRf-22" value="SiteBar" style="rounded=0;glass=0;fontFamily=Roboto Mono;fontSource=https%3A%2F%2Ffonts.googleapis.com%2Fcss%3Ffamily%3DRoboto%2BMono;align=center;verticalAlign=middle;fillColor=#D9D9D9;fontSize=16;" parent="sFut6FeqECjllhm6QVjB-1" vertex="1">
          <mxGeometry x="-2455.25" y="3490" width="650" height="30" as="geometry" />
        </mxCell>
        <mxCell id="vs7IeHukqz62ipAJ9pRf-23" value="Footer" style="rounded=0;glass=0;fontFamily=Roboto Mono;fontSource=https%3A%2F%2Ffonts.googleapis.com%2Fcss%3Ffamily%3DRoboto%2BMono;align=center;verticalAlign=middle;fillColor=#D9D9D9;fontSize=16;" parent="sFut6FeqECjllhm6QVjB-1" vertex="1">
          <mxGeometry x="-2470" y="4150" width="670" height="30" as="geometry" />
        </mxCell>
        <mxCell id="vs7IeHukqz62ipAJ9pRf-19" value="pages/account/settings" style="rounded=0;whiteSpace=wrap;html=1;fontFamily=Roboto;fontSource=https%3A%2F%2Ffonts.googleapis.com%2Fcss%3Ffamily%3DRoboto;fontSize=16;align=left;labelPosition=center;verticalLabelPosition=middle;verticalAlign=top;fontStyle=1;spacingLeft=5;" parent="sFut6FeqECjllhm6QVjB-1" vertex="1">
          <mxGeometry x="-2488.63" y="3540" width="330" height="550.77" as="geometry" />
        </mxCell>
        <mxCell id="vs7IeHukqz62ipAJ9pRf-21" value="AccountSettings" style="verticalLabelPosition=middle;verticalAlign=top;html=1;shape=mxgraph.basic.diag_round_rect;dx=6;rounded=1;glass=0;fontFamily=Roboto Mono;fontSource=https://fonts.googleapis.com/css?family=Roboto+Mono;fontSize=16;fillColor=#FFFFCC;strokeColor=#CCCC00;labelPosition=center;align=center;dashed=1;strokeWidth=3;" parent="sFut6FeqECjllhm6QVjB-1" vertex="1">
          <mxGeometry x="-2458.63" y="3690.77" width="275.5" height="330" as="geometry" />
        </mxCell>
        <mxCell id="vs7IeHukqz62ipAJ9pRf-50" value="&lt;font style=&quot;font-size: 13px&quot;&gt;TeamAccountInformation&lt;/font&gt;" style="verticalLabelPosition=middle;verticalAlign=top;html=1;shape=mxgraph.basic.diag_round_rect;dx=6;rounded=0;shadow=0;sketch=0;fontFamily=Roboto Mono;fontSize=15;align=center;points=[[0,0.25],[0,0.5],[0,0.75],[0.25,0],[0.5,0],[0.75,0],[1,0.25],[1,0.5],[1,0.75],[0.25,1],[0.5,1],[0.75,1]];snapToPoint=1;labelPosition=center;strokeColor=#56517e;whiteSpace=wrap;spacingLeft=11;spacingRight=3;spacingBottom=3;spacingTop=3;fontSource=https%3A%2F%2Ffonts.googleapis.com%2Fcss%3Ffamily%3DRoboto%2BMono;fillColor=#d0cee2;strokeWidth=2;" parent="sFut6FeqECjllhm6QVjB-1" vertex="1">
          <mxGeometry x="-2433.13" y="3799.24" width="230" height="51.53" as="geometry" />
        </mxCell>
        <mxCell id="vs7IeHukqz62ipAJ9pRf-51" value="&lt;font style=&quot;font-size: 13px&quot;&gt;TeamAccountMembers&lt;/font&gt;" style="verticalLabelPosition=middle;verticalAlign=top;html=1;shape=mxgraph.basic.diag_round_rect;dx=6;rounded=0;shadow=0;sketch=0;fontFamily=Roboto Mono;fontSize=15;align=center;points=[[0,0.25],[0,0.5],[0,0.75],[0.25,0],[0.5,0],[0.75,0],[1,0.25],[1,0.5],[1,0.75],[0.25,1],[0.5,1],[0.75,1]];snapToPoint=1;labelPosition=center;strokeColor=#56517e;whiteSpace=wrap;spacingLeft=11;spacingRight=3;spacingBottom=3;spacingTop=3;fontSource=https%3A%2F%2Ffonts.googleapis.com%2Fcss%3Ffamily%3DRoboto%2BMono;fillColor=#d0cee2;strokeWidth=2;" parent="sFut6FeqECjllhm6QVjB-1" vertex="1">
          <mxGeometry x="-2433.13" y="3869.24" width="230" height="51.53" as="geometry" />
        </mxCell>
        <mxCell id="vs7IeHukqz62ipAJ9pRf-52" value="&lt;font style=&quot;font-size: 13px&quot;&gt;TeamAccountVendors&lt;/font&gt;" style="verticalLabelPosition=middle;verticalAlign=top;html=1;shape=mxgraph.basic.diag_round_rect;dx=6;rounded=0;shadow=0;sketch=0;fontFamily=Roboto Mono;fontSize=15;align=center;points=[[0,0.25],[0,0.5],[0,0.75],[0.25,0],[0.5,0],[0.75,0],[1,0.25],[1,0.5],[1,0.75],[0.25,1],[0.5,1],[0.75,1]];snapToPoint=1;labelPosition=center;strokeColor=#56517e;whiteSpace=wrap;spacingLeft=11;spacingRight=3;spacingBottom=3;spacingTop=3;fontSource=https%3A%2F%2Ffonts.googleapis.com%2Fcss%3Ffamily%3DRoboto%2BMono;fillColor=#d0cee2;strokeWidth=2;" parent="sFut6FeqECjllhm6QVjB-1" vertex="1">
          <mxGeometry x="-2433.13" y="3939.24" width="230" height="51.53" as="geometry" />
        </mxCell>
        <mxCell id="vs7IeHukqz62ipAJ9pRf-48" value="AccountNav" style="rounded=0;glass=0;fontFamily=Roboto Mono;fontSource=https%3A%2F%2Ffonts.googleapis.com%2Fcss%3Ffamily%3DRoboto%2BMono;align=center;verticalAlign=middle;fillColor=#D9D9D9;fontSize=16;" parent="sFut6FeqECjllhm6QVjB-1" vertex="1">
          <mxGeometry x="-2458.63" y="3590" width="275.5" height="80" as="geometry" />
        </mxCell>
        <mxCell id="vs7IeHukqz62ipAJ9pRf-49" value="&lt;font style=&quot;font-size: 13px&quot;&gt;MemberInformation&lt;/font&gt;" style="verticalLabelPosition=middle;verticalAlign=top;html=1;shape=mxgraph.basic.diag_round_rect;dx=6;rounded=0;shadow=0;sketch=0;fontFamily=Roboto Mono;fontSize=15;align=center;points=[[0,0.25],[0,0.5],[0,0.75],[0.25,0],[0.5,0],[0.75,0],[1,0.25],[1,0.5],[1,0.75],[0.25,1],[0.5,1],[0.75,1]];snapToPoint=1;labelPosition=center;strokeColor=#56517e;whiteSpace=wrap;spacingLeft=11;spacingRight=3;spacingBottom=3;spacingTop=3;fontSource=https%3A%2F%2Ffonts.googleapis.com%2Fcss%3Ffamily%3DRoboto%2BMono;fillColor=#d0cee2;strokeWidth=2;" parent="sFut6FeqECjllhm6QVjB-1" vertex="1">
          <mxGeometry x="-2435.63" y="3729.24" width="230" height="51.53" as="geometry" />
        </mxCell>
        <mxCell id="tfkPu7cL_q4CPY7hSsbs-94" value="ACCOUNT PAGES" style="text;strokeColor=none;fillColor=none;align=center;verticalAlign=middle;rounded=0;labelBackgroundColor=#FFFFFF;pointerEvents=0;fontFamily=Roboto;fontSource=https%3A%2F%2Ffonts.googleapis.com%2Fcss%3Ffamily%3DRoboto;fontSize=24;fontColor=default;fontStyle=1" vertex="1" parent="sFut6FeqECjllhm6QVjB-1">
          <mxGeometry x="-2470" y="3410" width="680" height="40" as="geometry" />
        </mxCell>
        <mxCell id="vs7IeHukqz62ipAJ9pRf-66" value="pages/account/activity" style="rounded=0;whiteSpace=wrap;html=1;fontFamily=Roboto;fontSource=https%3A%2F%2Ffonts.googleapis.com%2Fcss%3Ffamily%3DRoboto;fontSize=16;align=left;labelPosition=center;verticalLabelPosition=middle;verticalAlign=top;fontStyle=1;spacingLeft=5;" parent="sFut6FeqECjllhm6QVjB-1" vertex="1">
          <mxGeometry x="-2130" y="3540" width="325" height="550.77" as="geometry" />
        </mxCell>
        <mxCell id="vs7IeHukqz62ipAJ9pRf-67" value="AccountActivity" style="verticalLabelPosition=middle;verticalAlign=top;html=1;shape=mxgraph.basic.diag_round_rect;dx=6;rounded=1;glass=0;fontFamily=Roboto Mono;fontSource=https://fonts.googleapis.com/css?family=Roboto+Mono;fontSize=16;fillColor=#FFFFCC;strokeColor=#CCCC00;labelPosition=center;align=center;dashed=1;strokeWidth=3;" parent="sFut6FeqECjllhm6QVjB-1" vertex="1">
          <mxGeometry x="-2100" y="3691.54" width="275.5" height="360" as="geometry" />
        </mxCell>
        <mxCell id="vs7IeHukqz62ipAJ9pRf-71" value="AccountNav" style="rounded=0;glass=0;fontFamily=Roboto Mono;fontSource=https%3A%2F%2Ffonts.googleapis.com%2Fcss%3Ffamily%3DRoboto%2BMono;align=center;verticalAlign=middle;fillColor=#D9D9D9;fontSize=16;" parent="sFut6FeqECjllhm6QVjB-1" vertex="1">
          <mxGeometry x="-2100" y="3590" width="275.5" height="91.77" as="geometry" />
        </mxCell>
        <mxCell id="vs7IeHukqz62ipAJ9pRf-73" value="" style="group" parent="sFut6FeqECjllhm6QVjB-1" vertex="1" connectable="0">
          <mxGeometry x="-2070" y="3740.77" width="230" height="261.5300000000002" as="geometry" />
        </mxCell>
        <mxCell id="vs7IeHukqz62ipAJ9pRf-55" value="&lt;span style=&quot;font-size: 13px&quot;&gt;CashBackReport&lt;/span&gt;" style="verticalLabelPosition=middle;verticalAlign=top;html=1;shape=mxgraph.basic.diag_round_rect;dx=6;rounded=0;shadow=0;sketch=0;fontFamily=Roboto Mono;fontSize=15;align=center;points=[[0,0.25],[0,0.5],[0,0.75],[0.25,0],[0.5,0],[0.75,0],[1,0.25],[1,0.5],[1,0.75],[0.25,1],[0.5,1],[0.75,1]];snapToPoint=1;labelPosition=center;strokeColor=#56517e;whiteSpace=wrap;spacingLeft=11;spacingRight=3;spacingBottom=3;spacingTop=3;fontSource=https%3A%2F%2Ffonts.googleapis.com%2Fcss%3Ffamily%3DRoboto%2BMono;fillColor=#d0cee2;strokeWidth=2;" parent="vs7IeHukqz62ipAJ9pRf-73" vertex="1">
          <mxGeometry width="230" height="51.53" as="geometry" />
        </mxCell>
        <mxCell id="vs7IeHukqz62ipAJ9pRf-56" value="&lt;span style=&quot;font-size: 13px&quot;&gt;TotalCashBackPanel&lt;/span&gt;" style="verticalLabelPosition=middle;verticalAlign=top;html=1;shape=mxgraph.basic.diag_round_rect;dx=6;rounded=0;shadow=0;sketch=0;fontFamily=Roboto Mono;fontSize=15;align=center;points=[[0,0.25],[0,0.5],[0,0.75],[0.25,0],[0.5,0],[0.75,0],[1,0.25],[1,0.5],[1,0.75],[0.25,1],[0.5,1],[0.75,1]];snapToPoint=1;labelPosition=center;strokeColor=#36393d;whiteSpace=wrap;spacingLeft=11;spacingRight=3;spacingBottom=3;spacingTop=3;fontSource=https%3A%2F%2Ffonts.googleapis.com%2Fcss%3Ffamily%3DRoboto%2BMono;fillColor=#eeeeee;" parent="vs7IeHukqz62ipAJ9pRf-73" vertex="1">
          <mxGeometry y="70" width="230" height="51.53" as="geometry" />
        </mxCell>
        <mxCell id="vs7IeHukqz62ipAJ9pRf-57" value="&lt;span style=&quot;font-size: 13px&quot;&gt;TotalSavingsPanel&lt;/span&gt;" style="verticalLabelPosition=middle;verticalAlign=top;html=1;shape=mxgraph.basic.diag_round_rect;dx=6;rounded=0;shadow=0;sketch=0;fontFamily=Roboto Mono;fontSize=15;align=center;points=[[0,0.25],[0,0.5],[0,0.75],[0.25,0],[0.5,0],[0.75,0],[1,0.25],[1,0.5],[1,0.75],[0.25,1],[0.5,1],[0.75,1]];snapToPoint=1;labelPosition=center;strokeColor=#36393d;whiteSpace=wrap;spacingLeft=11;spacingRight=3;spacingBottom=3;spacingTop=3;fontSource=https%3A%2F%2Ffonts.googleapis.com%2Fcss%3Ffamily%3DRoboto%2BMono;fillColor=#eeeeee;" parent="vs7IeHukqz62ipAJ9pRf-73" vertex="1">
          <mxGeometry y="140" width="230" height="51.53" as="geometry" />
        </mxCell>
        <mxCell id="vs7IeHukqz62ipAJ9pRf-58" value="&lt;span style=&quot;font-size: 13px&quot;&gt;ActivityTable&lt;/span&gt;" style="verticalLabelPosition=middle;verticalAlign=top;html=1;shape=mxgraph.basic.diag_round_rect;dx=6;rounded=0;shadow=0;sketch=0;fontFamily=Roboto Mono;fontSize=15;align=center;points=[[0,0.25],[0,0.5],[0,0.75],[0.25,0],[0.5,0],[0.75,0],[1,0.25],[1,0.5],[1,0.75],[0.25,1],[0.5,1],[0.75,1]];snapToPoint=1;labelPosition=center;strokeColor=#56517e;whiteSpace=wrap;spacingLeft=11;spacingRight=3;spacingBottom=3;spacingTop=3;fontSource=https%3A%2F%2Ffonts.googleapis.com%2Fcss%3Ffamily%3DRoboto%2BMono;fillColor=#d0cee2;strokeWidth=2;" parent="vs7IeHukqz62ipAJ9pRf-73" vertex="1">
          <mxGeometry y="210" width="230" height="51.53" as="geometry" />
        </mxCell>
        <mxCell id="tfkPu7cL_q4CPY7hSsbs-162" value="" style="group" vertex="1" connectable="0" parent="sFut6FeqECjllhm6QVjB-1">
          <mxGeometry x="-2190" y="1786.8600000000001" width="1067.5" height="420.77" as="geometry" />
        </mxCell>
        <mxCell id="tfkPu7cL_q4CPY7hSsbs-95" value="ONBOARDING - NEW MEMBER" style="text;strokeColor=none;fillColor=none;align=center;verticalAlign=middle;rounded=0;labelBackgroundColor=#FFFFFF;pointerEvents=0;fontFamily=Roboto;fontSource=https%3A%2F%2Ffonts.googleapis.com%2Fcss%3Ffamily%3DRoboto;fontSize=24;fontColor=default;fontStyle=1" vertex="1" parent="tfkPu7cL_q4CPY7hSsbs-162">
          <mxGeometry x="33.70000000000027" width="379.12" height="40" as="geometry" />
        </mxCell>
        <mxCell id="tfkPu7cL_q4CPY7hSsbs-161" value="" style="group" vertex="1" connectable="0" parent="tfkPu7cL_q4CPY7hSsbs-162">
          <mxGeometry y="50.76999999999998" width="1067.5" height="370" as="geometry" />
        </mxCell>
        <mxCell id="vs7IeHukqz62ipAJ9pRf-76" value="&lt;font data-font-src=&quot;https://fonts.googleapis.com/css?family=Roboto+Mono&quot; style=&quot;font-size: 16px&quot;&gt;PublicLayout&lt;/font&gt;" style="shape=partialRectangle;html=1;top=1;align=center;dashed=1;strokeWidth=1;labelPosition=center;verticalLabelPosition=middle;verticalAlign=top;fillColor=#cdeb8b;strokeColor=#36393d;spacingLeft=4;fontFamily=Roboto Mono;fontSource=https://fonts.googleapis.com/css?family=Roboto+Mono;fontSize=16;" parent="tfkPu7cL_q4CPY7hSsbs-161" vertex="1">
          <mxGeometry x="30" width="1010" height="370" as="geometry" />
        </mxCell>
        <mxCell id="vs7IeHukqz62ipAJ9pRf-78" value="AppBar" style="rounded=0;glass=0;fontFamily=Roboto Mono;fontSource=https%3A%2F%2Ffonts.googleapis.com%2Fcss%3Ffamily%3DRoboto%2BMono;align=center;verticalAlign=middle;fillColor=#D9D9D9;fontSize=16;" parent="tfkPu7cL_q4CPY7hSsbs-161" vertex="1">
          <mxGeometry x="40" y="39.23000000000002" width="980" height="32.63" as="geometry" />
        </mxCell>
        <mxCell id="tfkPu7cL_q4CPY7hSsbs-156" value="" style="group" vertex="1" connectable="0" parent="tfkPu7cL_q4CPY7hSsbs-161">
          <mxGeometry y="92.63000000000011" width="260" height="257.3699999999999" as="geometry" />
        </mxCell>
        <mxCell id="vs7IeHukqz62ipAJ9pRf-80" value="/new-member&lt;br&gt;/sign-up" style="rounded=0;whiteSpace=wrap;html=1;fontFamily=Roboto;fontSource=https%3A%2F%2Ffonts.googleapis.com%2Fcss%3Ffamily%3DRoboto;fontSize=16;align=left;labelPosition=center;verticalLabelPosition=middle;verticalAlign=top;fontStyle=1;spacingLeft=5;" parent="tfkPu7cL_q4CPY7hSsbs-156" vertex="1">
          <mxGeometry width="260" height="257.37" as="geometry" />
        </mxCell>
        <mxCell id="vs7IeHukqz62ipAJ9pRf-81" value="" style="verticalLabelPosition=middle;verticalAlign=top;html=1;shape=mxgraph.basic.diag_round_rect;dx=6;rounded=1;glass=0;fontFamily=Roboto Mono;fontSource=https://fonts.googleapis.com/css?family=Roboto+Mono;fontSize=16;fillColor=#FFFFCC;strokeColor=#CCCC00;labelPosition=center;align=center;dashed=1;strokeWidth=3;" parent="tfkPu7cL_q4CPY7hSsbs-156" vertex="1">
          <mxGeometry x="15" y="92.36999999999989" width="230" height="107.63" as="geometry" />
        </mxCell>
        <mxCell id="vs7IeHukqz62ipAJ9pRf-82" value="OnboardNav" style="rounded=0;glass=0;fontFamily=Roboto Mono;fontSource=https%3A%2F%2Ffonts.googleapis.com%2Fcss%3Ffamily%3DRoboto%2BMono;align=center;verticalAlign=middle;fillColor=#D9D9D9;fontSize=16;" parent="tfkPu7cL_q4CPY7hSsbs-156" vertex="1">
          <mxGeometry x="15" y="50" width="230" height="30" as="geometry" />
        </mxCell>
        <mxCell id="vs7IeHukqz62ipAJ9pRf-84" value="&lt;span style=&quot;font-size: 13px&quot;&gt;SignUpForm&lt;/span&gt;" style="verticalLabelPosition=middle;verticalAlign=top;html=1;shape=mxgraph.basic.diag_round_rect;dx=6;rounded=0;shadow=0;sketch=0;fontFamily=Roboto Mono;fontSize=15;align=center;points=[[0,0.25],[0,0.5],[0,0.75],[0.25,0],[0.5,0],[0.75,0],[1,0.25],[1,0.5],[1,0.75],[0.25,1],[0.5,1],[0.75,1]];snapToPoint=1;labelPosition=center;strokeColor=#56517e;whiteSpace=wrap;spacingLeft=11;spacingRight=3;spacingBottom=3;spacingTop=3;fontSource=https%3A%2F%2Ffonts.googleapis.com%2Fcss%3Ffamily%3DRoboto%2BMono;fillColor=#d0cee2;strokeWidth=2;" parent="tfkPu7cL_q4CPY7hSsbs-156" vertex="1">
          <mxGeometry x="21.36999999999989" y="101.18999999999983" width="220" height="51.53" as="geometry" />
        </mxCell>
        <mxCell id="tfkPu7cL_q4CPY7hSsbs-157" value="" style="group" vertex="1" connectable="0" parent="tfkPu7cL_q4CPY7hSsbs-161">
          <mxGeometry x="269" y="92.63000000000011" width="260" height="257.3699999999999" as="geometry" />
        </mxCell>
        <mxCell id="vs7IeHukqz62ipAJ9pRf-104" value="/new-member&lt;br&gt;/create-team-account" style="rounded=0;whiteSpace=wrap;html=1;fontFamily=Roboto;fontSource=https%3A%2F%2Ffonts.googleapis.com%2Fcss%3Ffamily%3DRoboto;fontSize=16;align=left;labelPosition=center;verticalLabelPosition=middle;verticalAlign=top;fontStyle=1;spacingLeft=5;" parent="tfkPu7cL_q4CPY7hSsbs-157" vertex="1">
          <mxGeometry width="260" height="257.37" as="geometry" />
        </mxCell>
        <mxCell id="vs7IeHukqz62ipAJ9pRf-105" value="" style="verticalLabelPosition=middle;verticalAlign=top;html=1;shape=mxgraph.basic.diag_round_rect;dx=6;rounded=1;glass=0;fontFamily=Roboto Mono;fontSource=https://fonts.googleapis.com/css?family=Roboto+Mono;fontSize=16;fillColor=#FFFFCC;strokeColor=#CCCC00;labelPosition=center;align=center;dashed=1;strokeWidth=3;" parent="tfkPu7cL_q4CPY7hSsbs-157" vertex="1">
          <mxGeometry x="15" y="92.36999999999989" width="230" height="95" as="geometry" />
        </mxCell>
        <mxCell id="vs7IeHukqz62ipAJ9pRf-106" value="OnboardNav" style="rounded=0;glass=0;fontFamily=Roboto Mono;fontSource=https%3A%2F%2Ffonts.googleapis.com%2Fcss%3Ffamily%3DRoboto%2BMono;align=center;verticalAlign=middle;fillColor=#D9D9D9;fontSize=16;" parent="tfkPu7cL_q4CPY7hSsbs-157" vertex="1">
          <mxGeometry x="15" y="50" width="230" height="30" as="geometry" />
        </mxCell>
        <mxCell id="vs7IeHukqz62ipAJ9pRf-107" value="&lt;span style=&quot;font-size: 13px&quot;&gt;SetUpTeam&lt;/span&gt;" style="verticalLabelPosition=middle;verticalAlign=top;html=1;shape=mxgraph.basic.diag_round_rect;dx=6;rounded=0;shadow=0;sketch=0;fontFamily=Roboto Mono;fontSize=15;align=center;points=[[0,0.25],[0,0.5],[0,0.75],[0.25,0],[0.5,0],[0.75,0],[1,0.25],[1,0.5],[1,0.75],[0.25,1],[0.5,1],[0.75,1]];snapToPoint=1;labelPosition=center;strokeColor=#56517e;whiteSpace=wrap;spacingLeft=11;spacingRight=3;spacingBottom=3;spacingTop=3;fontSource=https%3A%2F%2Ffonts.googleapis.com%2Fcss%3Ffamily%3DRoboto%2BMono;fillColor=#d0cee2;strokeWidth=2;" parent="tfkPu7cL_q4CPY7hSsbs-157" vertex="1">
          <mxGeometry x="21.36999999999989" y="101.18999999999983" width="220" height="51.53" as="geometry" />
        </mxCell>
        <mxCell id="tfkPu7cL_q4CPY7hSsbs-158" value="" style="group" vertex="1" connectable="0" parent="tfkPu7cL_q4CPY7hSsbs-161">
          <mxGeometry x="538" y="92.63000000000011" width="260" height="257.3699999999999" as="geometry" />
        </mxCell>
        <mxCell id="vs7IeHukqz62ipAJ9pRf-109" value="/new-member&lt;br&gt;/vendor-setup" style="rounded=0;whiteSpace=wrap;html=1;fontFamily=Roboto;fontSource=https%3A%2F%2Ffonts.googleapis.com%2Fcss%3Ffamily%3DRoboto;fontSize=16;align=left;labelPosition=center;verticalLabelPosition=middle;verticalAlign=top;fontStyle=1;spacingLeft=5;" parent="tfkPu7cL_q4CPY7hSsbs-158" vertex="1">
          <mxGeometry width="260" height="257.37" as="geometry" />
        </mxCell>
        <mxCell id="vs7IeHukqz62ipAJ9pRf-110" value="" style="verticalLabelPosition=middle;verticalAlign=top;html=1;shape=mxgraph.basic.diag_round_rect;dx=6;rounded=1;glass=0;fontFamily=Roboto Mono;fontSource=https://fonts.googleapis.com/css?family=Roboto+Mono;fontSize=16;fillColor=#FFFFCC;strokeColor=#CCCC00;labelPosition=center;align=center;dashed=1;strokeWidth=3;" parent="tfkPu7cL_q4CPY7hSsbs-158" vertex="1">
          <mxGeometry x="15" y="92.36999999999989" width="230" height="145" as="geometry" />
        </mxCell>
        <mxCell id="vs7IeHukqz62ipAJ9pRf-111" value="OnboardNav" style="rounded=0;glass=0;fontFamily=Roboto Mono;fontSource=https%3A%2F%2Ffonts.googleapis.com%2Fcss%3Ffamily%3DRoboto%2BMono;align=center;verticalAlign=middle;fillColor=#D9D9D9;fontSize=16;" parent="tfkPu7cL_q4CPY7hSsbs-158" vertex="1">
          <mxGeometry x="15" y="50" width="230" height="30" as="geometry" />
        </mxCell>
        <mxCell id="vs7IeHukqz62ipAJ9pRf-112" value="&lt;span style=&quot;font-size: 13px&quot;&gt;ConnectVendorAccount&lt;/span&gt;" style="verticalLabelPosition=middle;verticalAlign=top;html=1;shape=mxgraph.basic.diag_round_rect;dx=6;rounded=0;shadow=0;sketch=0;fontFamily=Roboto Mono;fontSize=15;align=center;points=[[0,0.25],[0,0.5],[0,0.75],[0.25,0],[0.5,0],[0.75,0],[1,0.25],[1,0.5],[1,0.75],[0.25,1],[0.5,1],[0.75,1]];snapToPoint=1;labelPosition=center;strokeColor=#56517e;whiteSpace=wrap;spacingLeft=11;spacingRight=3;spacingBottom=3;spacingTop=3;fontSource=https%3A%2F%2Ffonts.googleapis.com%2Fcss%3Ffamily%3DRoboto%2BMono;fillColor=#d0cee2;strokeWidth=2;" parent="tfkPu7cL_q4CPY7hSsbs-158" vertex="1">
          <mxGeometry x="21.36999999999989" y="101.18999999999983" width="220" height="51.53" as="geometry" />
        </mxCell>
        <mxCell id="vs7IeHukqz62ipAJ9pRf-113" value="&lt;span style=&quot;font-size: 13px&quot;&gt;CreateVendorAccount&lt;/span&gt;" style="verticalLabelPosition=middle;verticalAlign=top;html=1;shape=mxgraph.basic.diag_round_rect;dx=6;rounded=0;shadow=0;sketch=0;fontFamily=Roboto Mono;fontSize=15;align=center;points=[[0,0.25],[0,0.5],[0,0.75],[0.25,0],[0.5,0],[0.75,0],[1,0.25],[1,0.5],[1,0.75],[0.25,1],[0.5,1],[0.75,1]];snapToPoint=1;labelPosition=center;strokeColor=#56517e;whiteSpace=wrap;spacingLeft=11;spacingRight=3;spacingBottom=3;spacingTop=3;fontSource=https%3A%2F%2Ffonts.googleapis.com%2Fcss%3Ffamily%3DRoboto%2BMono;fillColor=#d0cee2;strokeWidth=2;" parent="tfkPu7cL_q4CPY7hSsbs-158" vertex="1">
          <mxGeometry x="20" y="167.37000000000035" width="220" height="51.53" as="geometry" />
        </mxCell>
        <mxCell id="tfkPu7cL_q4CPY7hSsbs-160" value="" style="group" vertex="1" connectable="0" parent="tfkPu7cL_q4CPY7hSsbs-161">
          <mxGeometry x="807.5" y="92.63000000000011" width="260" height="257.3699999999999" as="geometry" />
        </mxCell>
        <mxCell id="vs7IeHukqz62ipAJ9pRf-114" value="/new-member&lt;br&gt;/onboarding-complete" style="rounded=0;whiteSpace=wrap;html=1;fontFamily=Roboto;fontSource=https%3A%2F%2Ffonts.googleapis.com%2Fcss%3Ffamily%3DRoboto;fontSize=16;align=left;labelPosition=center;verticalLabelPosition=middle;verticalAlign=top;fontStyle=1;spacingLeft=5;" parent="tfkPu7cL_q4CPY7hSsbs-160" vertex="1">
          <mxGeometry width="260" height="257.37" as="geometry" />
        </mxCell>
        <mxCell id="vs7IeHukqz62ipAJ9pRf-115" value="OnboardNav" style="rounded=0;glass=0;fontFamily=Roboto Mono;fontSource=https%3A%2F%2Ffonts.googleapis.com%2Fcss%3Ffamily%3DRoboto%2BMono;align=center;verticalAlign=middle;fillColor=#D9D9D9;fontSize=16;" parent="tfkPu7cL_q4CPY7hSsbs-160" vertex="1">
          <mxGeometry x="15" y="50" width="230" height="30" as="geometry" />
        </mxCell>
        <mxCell id="vs7IeHukqz62ipAJ9pRf-116" value="" style="verticalLabelPosition=middle;verticalAlign=top;html=1;shape=mxgraph.basic.diag_round_rect;dx=6;rounded=1;glass=0;fontFamily=Roboto Mono;fontSource=https://fonts.googleapis.com/css?family=Roboto+Mono;fontSize=16;fillColor=#FFFFCC;strokeColor=#CCCC00;labelPosition=center;align=center;dashed=1;strokeWidth=3;" parent="tfkPu7cL_q4CPY7hSsbs-160" vertex="1">
          <mxGeometry x="15" y="92.36999999999989" width="230" height="145" as="geometry" />
        </mxCell>
        <mxCell id="vs7IeHukqz62ipAJ9pRf-117" value="&lt;span style=&quot;font-size: 13px&quot;&gt;ConnectVendorAccount&lt;/span&gt;" style="verticalLabelPosition=middle;verticalAlign=top;html=1;shape=mxgraph.basic.diag_round_rect;dx=6;rounded=0;shadow=0;sketch=0;fontFamily=Roboto Mono;fontSize=15;align=center;points=[[0,0.25],[0,0.5],[0,0.75],[0.25,0],[0.5,0],[0.75,0],[1,0.25],[1,0.5],[1,0.75],[0.25,1],[0.5,1],[0.75,1]];snapToPoint=1;labelPosition=center;strokeColor=#56517e;whiteSpace=wrap;spacingLeft=11;spacingRight=3;spacingBottom=3;spacingTop=3;fontSource=https%3A%2F%2Ffonts.googleapis.com%2Fcss%3Ffamily%3DRoboto%2BMono;fillColor=#d0cee2;strokeWidth=2;" parent="tfkPu7cL_q4CPY7hSsbs-160" vertex="1">
          <mxGeometry x="28.86999999999989" y="101.18999999999983" width="209.4" height="56.18" as="geometry" />
        </mxCell>
        <mxCell id="vs7IeHukqz62ipAJ9pRf-118" value="&lt;span style=&quot;font-size: 13px&quot;&gt;CreateVendorAccount&lt;/span&gt;" style="verticalLabelPosition=middle;verticalAlign=top;html=1;shape=mxgraph.basic.diag_round_rect;dx=6;rounded=0;shadow=0;sketch=0;fontFamily=Roboto Mono;fontSize=15;align=center;points=[[0,0.25],[0,0.5],[0,0.75],[0.25,0],[0.5,0],[0.75,0],[1,0.25],[1,0.5],[1,0.75],[0.25,1],[0.5,1],[0.75,1]];snapToPoint=1;labelPosition=center;strokeColor=#56517e;whiteSpace=wrap;spacingLeft=11;spacingRight=3;spacingBottom=3;spacingTop=3;fontSource=https%3A%2F%2Ffonts.googleapis.com%2Fcss%3Ffamily%3DRoboto%2BMono;fillColor=#d0cee2;strokeWidth=2;" parent="tfkPu7cL_q4CPY7hSsbs-160" vertex="1">
          <mxGeometry x="27.5" y="167.37000000000035" width="205" height="51.53" as="geometry" />
        </mxCell>
      </root>
    </mxGraphModel>
  </diagram>
</mxfile>
